<?xml version="1.0" encoding="utf-8" ?><svg xmlns="http://www.w3.org/2000/svg" xmlns:xlink="http://www.w3.org/1999/xlink" width="2048" height="2048" viewBox="0 0 2048 2048"><path fill="#FFFFFE" transform="scale(2 2)" d="M0 0L1024 0L1024 1024L0 1024L0 0Z"/><path fill="#1A6FD4" transform="scale(2 2)" d="M624.92 300.112C617.549 255.39 647.173 212.945 691.693 204.439C736.213 195.932 779.398 224.466 789.034 268.756C802.895 269.015 819.45 269.267 833.124 270.795L840.004 271.865C842.596 272.175 845.147 272.695 847.728 273.077C881.093 280.222 916.475 291.664 935.986 321.826C946.162 337.556 948.871 358.382 944.56 376.282C925.308 456.213 830.232 527.008 764.58 568.872C737.14 586.262 708.961 602.458 680.124 617.417C669.281 623.057 658.099 628.306 647.18 633.846C663.635 653.324 678.068 674.424 690.258 696.82C695.492 706.647 700.498 717.773 705.279 727.9C709.747 721.658 714.429 715.043 720.778 724.351C724.694 730.091 725.614 732.209 732.752 733.636C740.049 723.299 745.889 717.366 758.756 714.875C769.467 712.802 791.383 716.813 793.13 729.353C794.571 739.691 768.883 758.626 760.794 764.363C757.347 766.808 749.671 768.043 746.22 771.362C734.747 782.056 729.644 798.475 711.459 800.392C707.434 800.817 701.216 799.623 698.22 796.404C694.205 792.089 692.327 785.739 689.006 779.87C685.386 773.475 676.101 766.444 674.807 759.903C674.58 758.756 675.311 756.569 676.141 755.578C650.833 728.45 614.509 698.863 579.783 685.287C569.163 681.136 557.955 678.667 546.813 676.355C537.234 679.293 526.768 683.382 517.294 686.91C503.811 743.526 478.471 785.198 441.811 829.556C436.892 835.423 431.779 841.125 426.48 846.651C423.739 849.519 419.127 853.987 416.807 856.976C431.634 867.348 424.017 869.938 418.895 880.653C416.501 885.662 428.625 888.706 432.598 891.002C436.155 893.024 439.173 895.874 441.395 899.309C448.158 909.892 449.542 929.514 437.309 936.926C435.283 938.154 430.548 939.183 428.296 938.194C423.268 935.931 418.939 931.98 414.252 929.08C402.133 921.581 390.193 914.848 379.002 905.964C374.757 902.595 366.638 902.024 361.728 897.527C356.572 893.192 350.172 889.075 347.524 882.631C341.946 869.057 354.878 863.598 362.443 855.664C365.955 851.981 366.078 847.695 367.874 843.411C370.32 837.573 375.147 837.796 380.162 839.96C394.901 809.08 420.44 747.119 420.021 714.304C362.977 728.181 304.948 737.639 246.45 742.594C244.739 746.538 243.191 749.065 239.184 751.097C235.953 752.723 232.21 753.004 228.774 751.877C224.393 750.41 222.619 747.836 220.727 743.942C196.556 744.122 170.676 742.549 146.955 737.383C121.886 731.924 94.8064 720.862 80.2378 698.545C69.8111 682.573 67.6165 663.534 72.1001 645.23C91.0601 567.83 183.445 497.99 247.225 457.518C257.631 450.937 268.189 444.6 278.89 438.51C285.626 434.707 293.704 430.636 300.071 426.641C299.718 426.2 297.474 422.796 298.8 422.727C299.998 422.664 302.966 425.296 304.221 425.95C304.775 424.609 304.936 424.335 305.709 423.119C287.523 409.949 284.042 383.992 288.77 363.445C289.684 366.996 290.408 369.7 292.299 372.932C293.526 375.029 299.004 381.395 301.684 379.73C295.235 371.928 293.066 370.253 292.51 359.315C291.787 345.098 300.6 325.906 310.349 315.865C309.544 326.294 313.096 333.7 320.956 340.44C308.112 316.87 320.455 298.307 342.894 287.28C349.282 284.14 356.151 282.999 363.077 281.452C355.099 289.784 353.93 294.278 353.433 305.566C353.987 304.317 354.699 302.648 355.139 301.38C362.005 281.573 385.265 279.475 402.137 286.712C413.129 291.335 421.781 300.211 426.123 311.317C437.466 307.588 448.443 305.217 459.456 300.13C469.295 295.586 478.376 289.915 488.423 285.943C494.506 283.56 496.905 287.692 499.339 292.475C506.514 306.572 513.888 320.206 517.111 335.772C523.303 333.085 533.184 329.614 539.685 327.339C556.919 321.31 575.891 314.481 593.398 309.458C593.529 304.681 595.846 299.565 601.337 299.417C605.417 299.307 607.568 302.032 610.232 304.694C615.163 303.28 620.06 301.752 624.92 300.112Z"/><path fill="#FFFFFE" transform="scale(2 2)" d="M624.92 300.112C617.549 255.39 647.173 212.945 691.693 204.439C736.213 195.932 779.398 224.466 789.034 268.756C789.249 269.747 789.447 270.741 789.626 271.739C796.518 271.778 803.409 271.87 810.299 272.013C812.598 272.075 814.088 272.161 816.373 272.366C820.984 272.602 828.122 273.543 832.671 274.515C839.594 274.887 846.556 276.638 853.258 277.942C878.186 282.793 908.991 294.244 925.897 313.802C977.925 373.99 898.971 459.292 854.934 497.773C801.971 544.054 743.68 580.282 681.86 612.908C669.928 619.191 657.324 624.949 645.255 631.133C621.252 602.854 590.425 593.445 554.727 589.866C552.921 559.614 544.608 522.812 533.028 494.922C569.217 495.237 588.417 492.186 622.486 477.626C624.887 476.233 626.46 475.333 629.026 474.194C639.878 468.06 653.492 460.836 663.115 452.945C677.543 441.116 694.19 427.767 707.499 414.795L711.234 410.947C716.18 404.399 717.089 401.741 712.734 394.671C709.511 392.602 709.147 392.018 705.298 391.069L703.384 391.008C702.755 390.001 702.782 389.646 702.509 388.514C700.548 380.387 694.882 378.903 687.73 378.97C686.38 374.949 684.247 370.652 680.195 368.973C670.565 364.985 663.422 372.538 658.826 379.367C657.673 371.922 656.353 360.128 645.778 361.914C628.089 364.901 637.77 382.047 635.57 393.502C626.891 438.699 564.546 434.186 530.212 429.071C523.561 428.08 517.199 426.483 510.903 425.774C516.133 412.197 516.301 398.983 515.521 384.781C522.375 380.155 524.093 374.296 523.335 366.154C522.87 361.159 520.829 352.795 514.139 353.896C509.714 354.623 507.1 359.135 504.855 362.557C495.434 358.848 494.826 360.146 488.627 367.589C487.783 367.855 486.943 368.099 486.081 368.295C483.19 368.954 479.976 369.004 477.427 367.257C475.843 366.17 474.887 364.484 474.624 362.594C474.158 359.245 475.898 355.901 477.923 353.365C487.87 340.912 489.902 350.057 496.005 348.856C499.771 348.114 499.879 343.42 502.011 340.953C504.899 337.613 508.174 343.56 513.579 341.172C532.633 332.752 552.649 325.949 572.421 319.38C579.131 317.151 586.859 313.769 593.878 313.206C594.728 313.138 595.406 314.039 596.04 314.596C598.152 316.45 599.919 317.942 602.891 317.811C605.015 317.717 607.758 316.78 609.179 315.136C611.071 312.946 611.377 310.036 611.078 307.282C615.832 305.739 620.628 304.33 625.46 303.056C625.263 302.078 625.083 301.097 624.92 300.112Z"/><path fill="#FF6B00" transform="scale(2 2)" d="M624.92 300.112C617.549 255.39 647.173 212.945 691.693 204.439C736.213 195.932 779.398 224.466 789.034 268.756C789.249 269.747 789.447 270.741 789.626 271.739C797.729 316.823 768.029 360.027 723.035 368.61C678.041 377.193 634.523 347.956 625.46 303.056C625.263 302.078 625.083 301.097 624.92 300.112Z"/><path fill="#FFFFFE" transform="scale(2 2)" d="M702.628 252.649C721.048 249.938 738.17 262.693 740.844 281.118C743.518 299.542 730.728 316.639 712.299 319.276C693.921 321.906 676.883 309.16 674.217 290.788C671.55 272.415 684.261 255.352 702.628 252.649Z"/><path fill="#FF6B00" transform="scale(2 2)" d="M707.499 414.795L711.234 410.947C711.913 416.453 711.99 467.993 710.831 470.364C709.3 471.704 710.082 471.55 708.53 471.545C706.789 469.745 706.92 465.494 706.96 463.006C707.372 446.939 707.552 430.867 707.499 414.795Z"/><path fill="#FF6B00" transform="scale(2 2)" d="M622.486 477.626C624.887 476.233 626.46 475.333 629.026 474.194C627.985 476.807 619.216 495.938 617.748 496.478C617.16 496.695 616.302 496.698 615.735 496.423C615.272 496.199 614.935 495.759 614.806 495.265C614.025 492.263 620.669 480.555 622.486 477.626Z"/><path fill="#F77133" transform="scale(2 2)" d="M816.373 272.366C820.984 272.602 828.122 273.543 832.671 274.515C827.412 275.624 822.555 275.053 817.541 275.816C817.522 274.133 816.869 273.99 816.373 272.366Z"/><path fill="#FF6B00" transform="scale(2 2)" d="M810.299 272.013C812.598 272.075 814.088 272.161 816.373 272.366C816.869 273.99 817.522 274.133 817.541 275.816C813.018 276.191 809.017 277.792 810.299 272.013Z"/><path fill="#FF6B00" transform="scale(2 2)" d="M705.298 391.069C711.294 387.415 712.082 389.009 712.734 394.671C709.511 392.602 709.147 392.018 705.298 391.069Z"/><path fill="#FF6B00" transform="scale(2 2)" d="M796.615 335.277C802.181 336.204 879.724 378.333 882.747 382.092C883.057 384.046 883.151 383.092 882.249 385.027C881.145 385.039 879.826 384.773 878.862 384.22C861.766 374.407 844.401 365.064 827.083 355.648L806.63 344.68C803.957 343.254 798.46 340.538 796.268 338.791C795.665 336.924 795.836 337.544 796.615 335.277Z"/><path fill="#FF6B00" transform="scale(2 2)" d="M619.918 342.384C622.193 342.401 623.74 342.968 623.869 345.324C621.908 347.514 609.726 356.982 606.591 359.486L565.897 391.901C564.363 392.356 564.422 392.468 562.92 392.028C561.711 389.743 564.189 387.412 565.859 385.986C571.337 381.31 577.14 376.959 582.772 372.449C595.235 362.528 607.618 352.506 619.918 342.384Z"/><path fill="#FF6B00" transform="scale(2 2)" d="M809.792 296.101C834.713 296.24 857.33 297.546 881.911 302.403C883.665 302.749 885.74 303.157 886.727 304.686C886.969 306.21 886.557 306.647 885.834 308.022C861.622 303.224 838.173 300.352 813.537 300.584C811.606 300.603 810.288 300.614 809.019 299.219C808.921 297.466 808.86 297.576 809.792 296.101Z"/><path fill="#1A6FD4" transform="scale(2 2)" d="M604.644 536.362C609.67 535.507 614.58 538.404 616.261 543.217C617.044 545.458 617.04 547.9 616.25 550.139C614.997 553.689 611.932 556.291 608.226 556.949C602.53 557.962 597.095 554.153 596.104 548.453C595.112 542.753 598.941 537.333 604.644 536.362Z"/><path fill="#FF6B00" transform="scale(2 2)" d="M779.818 452.655C781.045 453.114 782.144 453.366 782.747 454.718C789.526 469.928 795.449 485.505 802.475 500.626C804.221 504.384 806.142 508.577 807.545 512.459C807.208 514.509 807.289 513.889 805.646 515.696C801.025 513.482 781.694 464.407 778.246 456.249C777.81 455.217 779.158 453.491 779.818 452.655Z"/><path fill="#FF6B00" transform="scale(2 2)" d="M786.143 357.176C789.775 357.844 833.485 394.918 836.708 399.289C836.938 401.386 836.862 400.741 835.844 402.936C832.549 402.336 825.408 395.2 822.588 392.738L801.958 374.886C797.883 371.37 787.584 363.523 784.621 360.562C784.739 358.66 784.901 359.022 786.143 357.176Z"/><path fill="#FF6B00" transform="scale(2 2)" d="M608.047 328.379C609.813 328.277 610.077 328.535 611.25 329.593L611.242 330.791C608.384 334.726 564.009 358.249 556.335 362.828C555.119 362.983 555.191 362.94 554.022 362.523C552.724 361.114 552.95 361.88 552.93 360.29C554.698 357.389 601.47 332.025 608.047 328.379Z"/><path fill="#FF6B00" transform="scale(2 2)" d="M866.735 335.859C867.934 335.946 879.714 339.556 881.175 340.157C887.83 342.894 922.47 351.047 925.81 354.792C926.133 356.573 925.963 356.113 924.993 358.125C921.862 357.932 903.461 351.519 899.365 350.239C894.064 348.582 867.727 341.128 866.071 339.318C865.75 337.796 866.13 337.299 866.735 335.859Z"/><path fill="#FF6B00" transform="scale(2 2)" d="M727.072 387.371C729.023 387.506 729.631 387.157 730.651 388.203C735.201 406.705 739.264 425.573 743.765 444.106C743.96 444.91 743.559 446.029 743.285 446.778C742.022 446.6 739.993 446.421 739.663 444.953C737.697 436.184 725.139 392.878 727.072 387.371Z"/><path fill="#FF6B00" transform="scale(2 2)" d="M771.674 373.175C772.826 373.509 774.015 373.738 774.802 374.725C777.689 378.347 803.612 413.273 803.842 414.981C803.923 415.579 803.582 416.12 803.236 416.573C803.138 416.702 803.027 416.822 802.928 416.951C802.732 417.208 802.544 417.471 802.352 417.731C801.655 417.547 801.109 417.447 800.504 417.077C797.955 415.521 771.442 379.207 770.752 376.304C770.561 375.497 770.659 374.834 771.102 374.121C771.142 374.057 771.188 373.997 771.227 373.932C771.379 373.681 771.525 373.427 771.674 373.175Z"/><path fill="#FF6B00" transform="scale(2 2)" d="M854.908 412.13C862.451 415.114 886.045 435.841 892.25 442.71C892.688 443.195 891.257 445.38 891.059 445.709C886.197 442.793 883.402 439.965 879.047 436.412L856.793 418.432C853.055 415.457 852.05 415.236 854.908 412.13Z"/><path fill="#FF6B00" transform="scale(2 2)" d="M608.595 389.328C609.113 389.445 613.055 390.807 612.379 391.549C603.061 401.774 593.382 415.034 583.143 424.176C582.989 424.219 582.838 424.273 582.682 424.303C582.267 424.38 581.826 424.048 581.546 423.782C580.945 423.208 580.142 422.189 580.223 421.294C580.272 420.746 606.106 391.645 608.595 389.328Z"/><path fill="#FF6B00" transform="scale(2 2)" d="M809.765 319.178C820.19 320.622 833.878 326.784 844.76 329.394L846.76 329.886C850.961 330.918 853.76 331.237 852.721 335.867C839.698 333.671 821.801 327.099 809.252 322.628C808.75 322.449 809.7 319.447 809.765 319.178Z"/><path fill="#FF6B00" transform="scale(2 2)" d="M742.775 454.15C745.084 454.551 745.902 454.271 746.44 456.747L746.923 459.004C748.18 465.713 749.795 472.513 750.854 479.26C751.513 483.454 753.529 486.993 752.313 491.041C748.224 491.045 748.436 491.423 747.569 487.001C746.922 483.697 746.268 480.292 745.563 476.994L743.099 463.494C742.331 459.136 741.545 458.226 742.775 454.15Z"/><path fill="#FF6B00" transform="scale(2 2)" d="M810.273 425.83C811.678 426.181 812.858 426.341 813.703 427.626C817.934 434.205 822.212 440.808 826.52 447.33C827.82 449.298 832.449 454.519 831.175 456.633C830.934 457.08 830.694 457.527 830.454 457.973C828.905 457.93 827.905 458.123 827.027 456.733C821.222 447.537 814.698 438.593 809.557 429.016C808.989 427.958 809.859 426.591 810.273 425.83Z"/><path fill="#FF6B00" transform="scale(2 2)" d="M748.792 381.684C749.164 381.794 749.538 381.898 749.907 382.019C752.381 382.831 761.396 405.96 763.506 410.001C763.862 410.683 764.38 411.45 764.503 412.228C764.763 413.882 763.682 415.107 762.793 416.386C762.255 416.156 762.013 416.089 761.585 415.827C759.101 414.313 748.245 388.233 747.547 384.3C747.438 383.687 747.591 383.172 747.968 382.689C748.057 382.574 748.162 382.471 748.254 382.359C748.436 382.136 748.613 381.909 748.792 381.684Z"/><path fill="#FF6B00" transform="scale(2 2)" d="M707.57 492.138C708.982 492.429 711.487 492.544 711.508 494.477C711.63 505.468 711.458 516.482 711.48 527.472C711.481 528.196 710.413 529.523 710 530.069C709.691 529.957 707.748 529.375 707.732 528.999C707.351 519.664 706.536 500.695 707.57 492.138Z"/><path fill="#FF6B00" transform="scale(2 2)" d="M669.351 459.319C676.119 459.538 673.797 462.351 673.041 469.251C672.404 475.073 671.593 483.971 670.051 489.507C664.812 491.126 665.698 487.108 666.436 483.25C667.904 475.564 667.652 466.798 669.351 459.319Z"/><path fill="#FF6B00" transform="scale(2 2)" d="M635.133 357.726C641.942 360.736 635.776 364.533 632.536 368.268C629.281 372.02 625.734 376.39 621.893 379.469C617.366 378.467 620.062 375.798 622.117 373.127C626.144 367.893 630.579 362.523 635.133 357.726Z"/><path fill="#FF6B00" transform="scale(2 2)" d="M765.582 419.242C767.629 420.177 768.477 422.196 769.283 424.303C771.565 430.268 775.158 436.14 776.845 442.239C776.994 442.78 774.984 444.43 774.725 444.673C771.495 442.453 765.027 426.528 763.44 421.999C763.207 421.332 764.502 420.222 764.892 419.878L765.582 419.242Z"/><path fill="#FF6B00" transform="scale(2 2)" d="M550.826 400.33C557.395 402.984 549.764 406.993 546.925 409.532C544.103 412.057 540.479 414.847 537.406 417.065C531.345 415.082 537.948 410.922 540.419 408.812C543.792 405.933 547.237 402.907 550.826 400.33Z"/><path fill="#FFFFFE" transform="scale(2 2)" d="M509.478 429.742C543.162 436.881 589.088 443.994 620.32 424.618C628.191 419.734 636.709 410.463 639.43 401.252C640.504 396.781 640.436 392.518 640.643 388.002C640.921 381.946 637.29 371.421 642.993 367.282C645.613 365.381 650.928 367.134 652.106 370.531C654.399 377.141 654.115 383.927 654.484 390.79C654.549 391.892 654.957 391.913 655.689 392.359C660.704 391.37 664.911 373.368 673.427 372.518C677.907 372.07 680.247 372.27 682.327 377.595C684.828 383.999 673.115 396.927 674.099 400.705C679.661 403.277 685.422 387.829 686.8 383.822C709.608 381.8 691.541 401.503 684.634 407.871C683.706 408.727 685.459 410.615 686.33 411.116C691.382 410.564 697.919 400.242 700.687 396.152C703.575 396.392 708.086 396.263 710.045 398.787C710.834 399.803 710.989 400.979 710.78 402.211C709.507 409.71 671.011 440.718 663.109 446.595C654.734 452.824 646.145 458.878 637.137 464.165C601.79 484.913 569.979 491.622 529.129 489.876C524.153 489.664 510.37 487.587 506.772 488.193C505.459 488.414 504.973 488.689 504.174 489.726C504.458 491.657 504.065 490.844 505.374 492.265C510.367 493.89 521.605 494.483 527.156 494.601C539.061 519.906 547.599 561.494 549.94 589.459C544.161 589.267 538.304 589.022 532.527 589.157C529.185 589.234 524.993 588.554 524.298 592.494C524.451 592.95 524.624 594.121 525.204 594.117C565.981 593.835 612.752 599.359 640.333 633.011C619.973 642.862 599.301 652.056 578.349 660.577C569.87 664.108 559.25 668.377 550.438 671.002C548.01 671.725 536.83 670.081 533.302 669.793C515.187 668.315 495.097 668.255 477.635 663.044C475.508 662.409 467.715 659.135 466.373 659.403C465.348 660.886 465.628 660.075 465.598 661.955C468.96 669.514 505.621 673.079 514.252 673.557C513.755 677.271 513.227 680.981 512.668 684.686C498.454 689.695 485.965 692.967 471.483 697.119C455.81 701.612 441.379 705.587 425.49 709.339C425.499 699.256 425.441 689.172 425.314 679.089C429.938 673.308 447.791 655.083 449.075 650.03C448.532 648.213 449.013 648.968 447.537 647.713C446.629 647.58 445.875 647.329 445.137 648.21C433.35 662.281 420.894 677.371 407.54 689.943C368.957 726.268 306.198 733.111 266.196 695.166C256.248 685.779 248.216 674.71 239.859 663.919C226.595 646.94 211.639 623.276 187.384 623.319C181.407 623.329 173.322 626.456 169.662 631.144C158.27 645.734 163.593 663.681 180.598 669.596C187.362 667.129 193.251 663.034 200.256 666.261C202.773 667.421 204.699 669.442 205.611 672.072C206.501 674.635 206.281 677.452 205.006 679.847C198.723 691.749 178.536 686.749 169.264 681.048C151.952 670.404 143.945 649.27 155.203 631.106C169.515 608.013 196.839 607.7 218.161 621.111C229.043 627.955 236.468 638.371 244.53 648.141C273.504 685.417 299.314 714.669 351.463 702.395C384.241 694.68 401.233 672.525 419.473 645.553C429.697 630.435 427.38 623.167 426.131 605.518C425.124 590.814 423.859 576.129 422.337 561.469C421.957 557.702 421.364 544.265 419.344 542.135C415.299 541.647 412.63 549.592 410.293 552.451C390.588 576.558 358.864 587.167 329.093 592.091C296.978 597.636 262.68 590.015 231.848 580.914C227.022 579.489 217.295 577.656 215.866 572.169L216.277 571.489C220.586 570.742 228.365 572.77 231.001 570.48L231.343 569.509C228.448 565.515 212.527 568.927 214.619 561.454C217.173 552.332 229.061 562.539 233.093 556.517C231.524 552.095 218.44 553.776 215.175 547.949C215.589 538.963 229.343 548.399 233.987 546.409C235.071 544.891 234.808 545.696 234.971 543.968C231.769 538.115 218.083 543.513 219.399 532.041C224.393 524.235 242.831 537.849 247.784 536.037C248.956 531.249 241.173 526.424 244.445 521.369C246.324 520.327 247.951 520.146 250.104 520.618C252.77 523.077 255.81 527.63 257.835 530.622C267.04 544.223 277.627 557.234 295.983 555.385C331.508 551.806 373.282 527.604 383.341 491.835C401.423 495.032 422.037 491.287 433.068 475.366L435.737 471.531C432.291 482.349 427.761 486.018 418.447 492.021C441.546 492.218 465.72 482.163 476.616 460.636C478.863 456.195 480.169 451.08 481.314 446.256L482.051 445.896L482.426 446.742C481.885 454.324 480.59 458.521 477.554 465.333C478.245 466.089 478.371 466.236 479.115 466.895C491.659 459.081 503.244 443.079 509.478 429.742Z"/><path fill="#F77133" transform="scale(2 2)" d="M479.115 466.895C475.889 470.167 475.099 469.008 477.554 465.333C478.245 466.089 478.371 466.236 479.115 466.895Z"/><path fill="#FFFFFE" transform="scale(2 2)" d="M301.933 429.332C302.01 429.579 302.088 429.825 302.165 430.071C310.236 447.811 329.765 466.939 351.259 460.968C354.15 460.166 355.843 459.298 358.958 458.958C351.544 464.155 344.074 466.107 335.008 465.406L333.958 467.256C345.388 477.079 364.028 488.123 378.991 490.929C372.084 513.255 354.898 527.478 334.692 538.25C320.054 546.062 301.236 553.062 284.434 549.17C273.069 545.81 265.992 533.729 259.605 524.656C255.481 518.798 251.732 511.683 243.536 515.939C237.377 519.138 238.315 522.639 239.179 528.577C224.915 523.415 212.888 519.362 214.967 539.725C215.228 542.278 205.234 540.371 213.13 553.932C208.14 561.071 210.206 559.794 211.405 567.814C211.619 569.765 210.28 572.943 210.747 574.748C211.224 576.591 214.801 579.912 216.474 580.536C241.657 589.928 276.299 598.48 303.115 599.333C337.251 600.419 398.957 583.114 416.371 551.992C416.977 564.499 425.104 623.092 421.234 631.491C396.037 686.177 333.088 727.801 279.197 680.527C249.235 654.243 232.523 605.35 186.834 607.371C162.943 608.35 144.665 627.485 144.688 650.497C143.368 678.73 188.701 706.819 207.561 684.723C210.36 681.494 211.684 677.243 211.215 672.995C210.81 669.194 208.8 665.747 205.691 663.522C197.523 657.602 187.991 661.115 179.745 664.473C175.272 661.884 170.24 657.679 169.311 652.628C165.022 629.282 188.418 622.622 204.937 633.292C220.406 643.283 227.737 656.376 238.626 670.459C259.467 697.107 278.844 718.458 314.196 723.867C331.243 726.475 339.287 726.797 356.02 722.697C382.748 716.149 401.038 703.989 419.985 684.765C420.285 688.565 421.193 708.189 419.897 710.813C363.107 725.15 305.193 734.594 246.791 739.04C245.031 725.757 228.498 721.997 221.7 733.368C220.045 736.135 220.487 737.393 219.527 740.16C204.157 743.007 164.574 737.296 148.131 734.173C123.717 729.536 95.7662 717.329 82.1489 695.64C72.7359 680.648 70.9783 661.662 75.4042 644.566C93.8869 572.944 179.654 504.835 239.042 466.518C251.876 458.338 264.881 450.428 278.048 442.795C285.598 438.486 294.747 433.811 301.933 429.332Z"/><path fill="#F77133" transform="scale(2 2)" d="M333.958 467.256C330.981 464.539 330.801 464.261 334.537 465.281L335.008 465.406L333.958 467.256Z"/><path fill="#FF6B00" transform="scale(2 2)" d="M320.956 340.44C308.112 316.87 320.455 298.307 342.894 287.28C349.282 284.14 356.151 282.999 363.077 281.452C355.099 289.784 353.93 294.278 353.433 305.566C353.987 304.317 354.699 302.648 355.139 301.38C362.005 281.573 385.265 279.475 402.137 286.712C413.129 291.335 421.781 300.211 426.123 311.317C437.466 307.588 448.443 305.217 459.456 300.13C469.295 295.586 478.376 289.915 488.423 285.943C494.506 283.56 496.905 287.692 499.339 292.475C506.514 306.572 513.888 320.206 517.111 335.772C523.303 333.085 533.184 329.614 539.685 327.339C556.919 321.31 575.891 314.481 593.398 309.458C593.529 304.681 595.846 299.565 601.337 299.417C605.417 299.307 607.568 302.032 610.232 304.694C615.163 303.28 620.06 301.752 624.92 300.112C625.083 301.097 625.263 302.078 625.46 303.056C620.628 304.33 615.832 305.739 611.078 307.282C611.377 310.036 611.071 312.946 609.179 315.136C607.758 316.78 605.015 317.717 602.891 317.811C599.919 317.942 598.152 316.45 596.04 314.596C595.406 314.039 594.728 313.138 593.878 313.206C586.859 313.769 579.131 317.151 572.421 319.38C552.649 325.949 532.633 332.752 513.579 341.172C508.174 343.56 504.899 337.613 502.011 340.953C499.879 343.42 499.771 348.114 496.005 348.856C489.902 350.057 487.87 340.912 477.923 353.365C475.898 355.901 474.158 359.245 474.624 362.594C474.887 364.484 475.843 366.17 477.427 367.257C479.976 369.004 483.19 368.954 486.081 368.295C486.943 368.099 487.783 367.855 488.627 367.589C494.826 360.146 495.434 358.848 504.855 362.557C507.1 359.135 509.714 354.623 514.139 353.896C520.829 352.795 522.87 361.159 523.335 366.154C524.093 374.296 522.375 380.155 515.521 384.781C516.301 398.983 516.133 412.197 510.903 425.774L509.478 429.742C503.244 443.079 491.659 459.081 479.115 466.895C478.371 466.236 478.245 466.089 477.554 465.333C480.59 458.521 481.885 454.324 482.426 446.742L482.051 445.896L481.314 446.256C480.169 451.08 478.863 456.195 476.616 460.636C465.72 482.163 441.546 492.218 418.447 492.021C427.761 486.018 432.291 482.349 435.737 471.531L433.068 475.366C422.037 491.287 401.423 495.032 383.341 491.835L378.991 490.929C364.028 488.123 345.388 477.079 333.958 467.256L335.008 465.406C344.074 466.107 351.544 464.155 358.958 458.958C355.843 459.298 354.15 460.166 351.259 460.968C329.765 466.939 310.236 447.811 302.165 430.071C302.088 429.825 302.01 429.579 301.933 429.332C301.192 427.919 301.121 427.826 300.071 426.641C299.718 426.2 297.474 422.796 298.8 422.727C299.998 422.664 302.966 425.296 304.221 425.95C304.775 424.609 304.936 424.335 305.709 423.119C287.523 409.949 284.042 383.992 288.77 363.445C289.684 366.996 290.408 369.7 292.299 372.932C293.526 375.029 299.004 381.395 301.684 379.73C295.235 371.928 293.066 370.253 292.51 359.315C291.787 345.098 300.6 325.906 310.349 315.865C309.544 326.294 313.096 333.7 320.956 340.44Z"/><path fill="#FFFFFE" transform="scale(2 2)" d="M426.123 311.317C437.466 307.588 448.443 305.217 459.456 300.13C469.295 295.586 478.376 289.915 488.423 285.943C494.506 283.56 496.905 287.692 499.339 292.475C506.514 306.572 513.888 320.206 517.111 335.772C523.303 333.085 533.184 329.614 539.685 327.339C556.919 321.31 575.891 314.481 593.398 309.458C593.529 304.681 595.846 299.565 601.337 299.417C605.417 299.307 607.568 302.032 610.232 304.694C615.163 303.28 620.06 301.752 624.92 300.112C625.083 301.097 625.263 302.078 625.46 303.056C620.628 304.33 615.832 305.739 611.078 307.282C611.377 310.036 611.071 312.946 609.179 315.136C607.758 316.78 605.015 317.717 602.891 317.811C599.919 317.942 598.152 316.45 596.04 314.596C595.406 314.039 594.728 313.138 593.878 313.206C586.859 313.769 579.131 317.151 572.421 319.38C552.649 325.949 532.633 332.752 513.579 341.172C508.174 343.56 504.899 337.613 502.011 340.953C499.879 343.42 499.771 348.114 496.005 348.856C489.902 350.057 487.87 340.912 477.923 353.365C475.898 355.901 474.158 359.245 474.624 362.594C474.887 364.484 475.843 366.17 477.427 367.257C479.976 369.004 483.19 368.954 486.081 368.295C486.943 368.099 487.783 367.855 488.627 367.589C494.826 360.146 495.434 358.848 504.855 362.557C507.1 359.135 509.714 354.623 514.139 353.896C520.829 352.795 522.87 361.159 523.335 366.154C524.093 374.296 522.375 380.155 515.521 384.781L514.54 381.243C510.938 385.701 507.197 390.813 503.056 394.729C472.926 423.224 409.171 426.9 379.899 395.173C374.491 397.052 368.507 399.315 362.749 399.662C350.144 400.421 338.607 392.758 338.346 379.439C338.191 373.434 340.475 367.621 344.677 363.327C350.487 357.38 357.229 355.884 365.083 355.688C366.328 350.46 368.421 345.471 371.28 340.92C385.149 318.595 403.611 316.667 426.123 311.317Z"/><path fill="#1A6FD4" transform="scale(2 2)" d="M426.123 311.317C437.466 307.588 448.443 305.217 459.456 300.13C469.295 295.586 478.376 289.915 488.423 285.943C494.506 283.56 496.905 287.692 499.339 292.475C506.514 306.572 513.888 320.206 517.111 335.772C523.303 333.085 533.184 329.614 539.685 327.339C556.919 321.31 575.891 314.481 593.398 309.458C593.529 304.681 595.846 299.565 601.337 299.417C605.417 299.307 607.568 302.032 610.232 304.694C615.163 303.28 620.06 301.752 624.92 300.112C625.083 301.097 625.263 302.078 625.46 303.056C620.628 304.33 615.832 305.739 611.078 307.282C611.377 310.036 611.071 312.946 609.179 315.136C607.758 316.78 605.015 317.717 602.891 317.811C599.919 317.942 598.152 316.45 596.04 314.596C595.406 314.039 594.728 313.138 593.878 313.206C586.859 313.769 579.131 317.151 572.421 319.38C552.649 325.949 532.633 332.752 513.579 341.172C508.174 343.56 504.899 337.613 502.011 340.953C499.879 343.42 499.771 348.114 496.005 348.856C489.902 350.057 487.87 340.912 477.923 353.365C475.898 355.901 474.158 359.245 474.624 362.594C474.887 364.484 475.843 366.17 477.427 367.257C479.976 369.004 483.19 368.954 486.081 368.295C486.943 368.099 487.783 367.855 488.627 367.589C494.826 360.146 495.434 358.848 504.855 362.557C507.1 359.135 509.714 354.623 514.139 353.896C520.829 352.795 522.87 361.159 523.335 366.154C524.093 374.296 522.375 380.155 515.521 384.781L514.54 381.243C516.263 378.404 518.711 374.111 518.244 370.802C517.998 370.559 517.752 370.315 517.505 370.071C508.311 372.634 486.605 381.899 477.258 379.814C472.419 378.711 468.225 375.714 465.612 371.494C462.698 366.869 462.098 361.945 463.465 356.692C464.708 351.846 467.234 347.424 470.778 343.893C476.929 337.71 499.399 327.326 508.449 322.08C506.144 316.038 502.635 309.506 499.772 303.587C499.237 303.93 498.697 304.266 498.153 304.595C496.474 317.81 493.025 314.876 483.798 309.802C478.721 307.01 473.662 304.165 468.782 301.01C459.747 306.247 440.819 312.824 430.309 315.056C403.666 320.717 379.293 325.408 370.482 355.014L370.828 355.684C371.62 357.244 372.275 358.065 372.14 359.761C370.026 362.13 365.061 360.19 361.634 360.436C352.078 361.123 342.154 369.192 342.61 379.436C346.044 398.913 364.755 397.647 377.881 391.366L379.899 395.173C374.491 397.052 368.507 399.315 362.749 399.662C350.144 400.421 338.607 392.758 338.346 379.439C338.191 373.434 340.475 367.621 344.677 363.327C350.487 357.38 357.229 355.884 365.083 355.688C366.328 350.46 368.421 345.471 371.28 340.92C385.149 318.595 403.611 316.667 426.123 311.317Z"/><path fill="#F5F6FE" transform="scale(2 2)" d="M498.153 304.595C498.475 303.079 498.653 300.645 499.772 303.587C499.237 303.93 498.697 304.266 498.153 304.595Z"/><path fill="#FFFFFE" transform="scale(2 2)" d="M510.294 325.428C511.225 327.642 513.42 335.408 512.388 337.613C511.256 340.03 504.149 334.107 501.008 336.119C498.416 337.78 496.847 341.825 495.813 344.469C493.405 343.359 490.697 342.295 488.004 342.54C479.239 343.226 469.213 354.048 470.679 363.077C472.46 374.042 481.96 372.922 490.035 371.642C492.977 369.045 494.733 365.17 499.154 365.091C509.921 369.842 507.165 361.103 515.822 357.68C518.271 359.17 518.504 362.578 519.047 365.222C507.28 368.923 491.031 376.285 478.74 375.83C471.854 375.574 465.472 364.51 467.604 357.994C473.057 341.331 496.171 334.842 510.294 325.428Z"/><path fill="#1A6FD4" transform="scale(2 2)" d="M424.251 329.635C428.317 329.461 438.111 329.378 441.348 333.826C441.614 335.194 440.929 337.444 439.233 336.608C431.378 332.735 422.446 332.258 415.966 338.737L415.874 338.895C414.16 341.775 413.557 343.625 413.026 346.982C412.787 348.501 412.857 351.464 412.214 352.769C412.088 353.025 409.141 353.188 408.973 352.219C408.468 350.134 409.026 347.109 409.374 344.989C410.857 335.946 416.01 331.878 424.251 329.635Z"/><path fill="#1A6FD4" transform="scale(2 2)" d="M362.533 372.56C365.07 372.461 377.029 372.59 376.755 376.566C376.628 378.401 364.44 385.854 363.757 385.557C358.716 383.36 363.834 380.69 364.895 380.069C366.864 378.862 368.141 377.881 370.006 376.522C365.895 376.517 360.275 376.466 356.579 379.097C355.294 380.858 351.572 384.645 349.884 380.777C348.247 377.025 360.481 373.04 362.533 372.56Z"/><path fill="#1A6FD4" transform="scale(2 2)" d="M426.209 337.189C429.532 337.05 432.388 339.523 432.726 342.831C433.064 346.139 430.767 349.138 427.485 349.675C425.179 350.051 422.855 349.118 421.449 347.252C420.044 345.386 419.79 342.894 420.788 340.782C421.787 338.67 423.875 337.286 426.209 337.189Z"/><path fill="#FFFFFE" transform="scale(2 2)" d="M307.119 427.688C307.914 426.868 308.7 426.039 309.476 425.201C311.641 426.504 320.344 428.621 319.837 429.508C319.101 430.792 317.227 430.436 315.993 430.159L312.757 429.433C310.815 428.978 309.035 428.221 307.119 427.688Z"/><path fill="#F77133" transform="scale(2 2)" d="M300.071 426.641C299.718 426.2 297.474 422.796 298.8 422.727C299.998 422.664 302.966 425.296 304.221 425.95L304.333 426.46C301.872 426.854 302.329 427.523 302.165 430.071C302.088 429.825 302.01 429.579 301.933 429.332C301.192 427.919 301.121 427.826 300.071 426.641Z"/><path fill="#358BF2" transform="scale(2 2)" d="M305.709 423.119C307.029 423.738 308.326 424.296 309.476 425.201C308.7 426.039 307.914 426.868 307.119 427.688C305.825 427.26 305.548 427.124 304.333 426.46L304.221 425.95C304.775 424.609 304.936 424.335 305.709 423.119Z"/><path fill="#FFFFFE" transform="scale(2 2)" d="M425.163 712.956C454.362 705.651 483.318 697.406 511.986 688.235C494.969 753.092 459.443 807.564 412.107 854.686C407.651 851.442 389.825 843.58 384.492 841.767C399.413 812.177 411.643 776.584 421.249 744.993C423.669 737.032 424.744 721.284 425.163 712.956Z"/><path fill="#FFFFFE" transform="scale(2 2)" d="M554.631 673.202L642.677 635.83C646.278 639.793 650.81 646.366 654.3 650.72C674.967 676.503 688.732 702.945 701.82 733.116C695.613 743.504 691.125 746.469 680.534 752.232C640.058 712.632 610.463 686.621 554.631 673.202Z"/><path fill="#FF6B00" transform="scale(2 2)" d="M732.752 733.636C740.049 723.299 745.889 717.366 758.756 714.875C769.467 712.802 791.383 716.813 793.13 729.353C794.571 739.691 768.883 758.626 760.794 764.363C757.347 766.808 749.671 768.043 746.22 771.362C734.747 782.056 729.644 798.475 711.459 800.392C707.434 800.817 701.216 799.623 698.22 796.404C694.205 792.089 692.327 785.739 689.006 779.87C685.386 773.475 676.101 766.444 674.807 759.903C674.58 758.756 675.311 756.569 676.141 755.578C677.596 754.852 679.228 753.317 680.534 752.232C691.125 746.469 695.613 743.504 701.82 733.116C703.13 731.636 704.239 729.616 705.279 727.9C709.747 721.658 714.429 715.043 720.778 724.351C724.694 730.091 725.614 732.209 732.752 733.636Z"/><path fill="#FF6B00" transform="scale(2 2)" d="M416.807 856.976C431.634 867.348 424.017 869.938 418.895 880.653C416.501 885.662 428.625 888.706 432.598 891.002C436.155 893.024 439.173 895.874 441.395 899.309C448.158 909.892 449.542 929.514 437.309 936.926C435.283 938.154 430.548 939.183 428.296 938.194C423.268 935.931 418.939 931.98 414.252 929.08C402.133 921.581 390.193 914.848 379.002 905.964C374.757 902.595 366.638 902.024 361.728 897.527C356.572 893.192 350.172 889.075 347.524 882.631C341.946 869.057 354.878 863.598 362.443 855.664C365.955 851.981 366.078 847.695 367.874 843.411C370.32 837.573 375.147 837.796 380.162 839.96L384.492 841.767C389.825 843.58 407.651 851.442 412.107 854.686C413.927 855.698 414.874 856.263 416.807 856.976Z"/><path fill="#FFFFFE" transform="scale(2 2)" d="M519.868 673.541C526.531 673.926 533.588 674.257 540.196 674.894C537.6 676.093 535.226 677.024 532.519 677.986L518.212 683.186C518.672 680.112 519.229 676.573 519.868 673.541Z"/><path fill="#FF6B00" transform="scale(2 2)" d="M603.097 882.978C606.165 877.74 607.96 874.018 612.996 870.373C628.818 859.314 641.526 871.477 647.845 886.028C650.907 893.08 652.034 905.238 639.927 902.524C635.016 901.423 632.988 893.111 630.824 889.226C629.064 886.067 628.268 884.408 624.561 883.119C615.027 889.811 614.954 902.967 601.237 904.325C590.17 905.421 588.654 883.806 579.689 884.807C573.666 886.883 572.708 901.965 565.59 902.701C549.354 904.381 557.112 884.556 562.62 877.64C567.952 870.945 570.767 868.055 579.075 866.641C591.498 865.798 596.548 874.319 603.097 882.978Z"/><path fill="#FF6B00" transform="scale(2 2)" d="M228.493 359.593C245.298 357.571 244.094 371.511 240.166 382.618C236.755 392.265 259.427 394.301 256.416 404.784C255.706 407.258 252.705 409.558 250.557 410.666C226.979 410.772 206.472 370.528 228.493 359.593Z"/><path fill="#1A6FD4" transform="scale(2 2)" d="M253.563 257.73C261.476 255.786 269.47 260.606 271.445 268.511C273.419 276.416 268.63 284.429 260.733 286.434C252.793 288.45 244.726 283.629 242.741 275.681C240.755 267.733 245.608 259.685 253.563 257.73Z"/><path fill="#1A6FD4" transform="scale(2 2)" d="M145.566 850.611C168.085 849.609 196.401 850.96 219.588 850.93L303.954 850.809C312.183 850.845 320.57 850.469 328.71 850.687C330.217 851.629 329.729 851.247 330.292 853.57C326.2 854.437 312.561 854.163 307.619 854.158L264.941 854.081L182.346 854.188C171.117 854.137 157.401 854.436 146.373 853.862C145.322 852.549 145.674 852.697 145.566 850.611Z"/><path fill="#FF6B00" transform="scale(2 2)" d="M543.363 147.683C544.096 147.922 545.379 148.35 545.964 148.811C549.136 151.314 552.768 154.141 555.921 156.554C566.769 164.856 580.429 175.477 590.747 184.028C597.007 189.216 627.096 210.551 630.094 214.515C630.328 216.283 630.153 215.902 629.318 217.816C626.23 217.198 619.403 211.282 616.453 209.222C599.392 197.31 583.122 183.999 566.88 170.986C561.399 166.596 546.337 156.034 542.43 151.238C542.205 149.238 542.314 149.807 543.363 147.683Z"/><path fill="#1A6FD4" transform="scale(2 2)" d="M654.982 787.757C657.284 787.69 661.114 787.009 662.464 788.986L662.146 790.033C660.564 791.095 660.38 791 658.163 791C642.881 791.004 627.482 790.926 612.212 790.942L511.75 791.025C509.202 791.097 504.904 792.007 504.022 789.292L504.45 788.466C508.555 787.013 551.265 787.957 559.094 787.963L654.982 787.757Z"/><path fill="#FF6B00" transform="scale(2 2)" d="M824.841 126.814L826.615 127.359C827.064 127.853 827.54 128.081 827.481 128.808C827.107 133.474 772.927 198.326 767.055 202.511C765.278 202.005 765.218 201.89 764.462 200.5C764.719 197.149 775.115 187.05 778.045 183.76C783.847 177.112 789.539 170.37 795.121 163.537C804.104 152.578 815.654 136.745 824.841 126.814Z"/><path fill="#FF6B00" transform="scale(2 2)" d="M595.718 130.744C597.272 131.085 598.317 131.245 599.333 132.603C611.457 148.812 622.812 165.366 634.845 181.655C639.824 188.396 646.725 195.532 651.741 202.428C652.504 203.477 651.876 204.672 651.512 205.953C650.877 205.874 650.39 205.839 649.762 205.64C642.995 203.497 612.847 159.521 607.111 151.513C604.644 148.068 596.208 137.664 595.109 134.269C594.647 132.84 595.206 132.033 595.718 130.744Z"/><path fill="#1A6FD4" transform="scale(2 2)" d="M544.349 810.617C549.536 810.16 557.862 810.415 563.309 810.426L597.314 810.5L647.445 810.603C650.706 810.608 668.967 810.13 670.507 811.054C670.886 812.746 670.915 811.858 669.852 813.759C656.806 813.553 548.496 814.66 544.881 813.193C543.892 811.795 544.173 812.594 544.349 810.617Z"/><path fill="#FF6B00" transform="scale(2 2)" d="M937.795 162.967C938.712 162.954 938.714 163.051 939.632 163.306C940.977 164.952 940.666 164.059 940.848 165.976C940.175 167.081 939.298 167.666 938.125 168.182C913.874 178.839 890.222 191.857 866.115 202.679C865.034 202.83 865.431 202.802 864.309 202.51C863.265 200.905 863.401 201.723 863.615 200.035C866.249 196.377 880.79 190.668 885.656 188.262C902.921 179.596 920.302 171.164 937.795 162.967Z"/><path fill="#FF6B00" transform="scale(2 2)" d="M523.685 266.035C530.971 265.562 604.33 268.805 606.143 269.973C606.833 271.414 606.384 272.411 606.029 274.019C600.294 274.082 525.075 270.274 524.161 269.869C523.19 268.157 523.549 268.392 523.685 266.035Z"/><path fill="#FF6B00" transform="scale(2 2)" d="M603.973 286.571C605.683 286.338 605.696 286.611 606.801 287.63C606.996 289.549 607.152 288.643 606.204 290.424C602.256 292.777 579.554 297.215 573.406 298.594L531.591 308.181C530.037 307.921 530.104 308.012 528.941 306.975C528.516 305.426 528.467 306.183 529.245 304.642C533.403 301.562 547.408 300.08 553.018 298.517C569.629 293.889 587.438 291.292 603.973 286.571Z"/><path fill="#FF6B00" transform="scale(2 2)" d="M499.138 176.766C502.369 177.047 569.316 207.124 574.379 211.306C575.186 213.298 574.991 212.529 574.712 214.811C569.475 214.301 546.316 202.289 539.953 199.406L514.695 188.12C510.47 186.233 502.255 182.787 498.667 180.267C498.134 178.417 498.313 178.98 499.138 176.766Z"/><path fill="#1A6FD4" transform="scale(2 2)" d="M200.519 874.627C203.522 874.703 206.524 874.735 209.53 874.758C245.61 875.041 281.695 874.874 317.771 874.584C318.045 874.805 318.32 875.026 318.595 875.247L318.814 877.629C315.993 878.082 304.155 877.918 300.536 877.927L262.946 877.992L221.254 877.949C216.777 877.941 205.031 878.208 201.278 877.59C200.151 876.374 200.499 876.829 200.519 874.627Z"/><path fill="#FF6B00" transform="scale(2 2)" d="M841.731 167.873C843.151 168.301 843.244 168.842 843.796 170.027C842.855 173.218 790.382 213.89 783.853 217.94L782.318 217.311C781.29 215.902 781.511 216.673 781.66 214.913C783.715 211.773 790.931 206.824 794.155 204.39C810.013 192.418 825.351 179.137 841.731 167.873Z"/><path fill="#FF6B00" transform="scale(2 2)" d="M707.974 104.332C710.175 104.909 710.013 104.522 711.437 105.893C711.989 110.529 711.565 116.488 711.542 121.283C711.446 141.594 711.622 161.913 711.476 182.222C711.465 183.731 711.116 184.392 710.306 185.599C709.609 185.417 707.841 184.958 707.618 184.092C706.988 181.636 707.095 178.922 707.07 176.367C706.848 153.479 706.7 130.571 707.226 107.688C707.256 106.402 707.546 105.508 707.974 104.332Z"/><path fill="#FF6B00" transform="scale(2 2)" d="M605.345 60.9213C606.368 60.9747 607.187 61.0576 608.204 61.1629C609.237 61.9868 609.697 63.0234 610.263 64.2019C619.693 83.8498 629.746 103.229 638.882 123.006C639.5 124.343 639.076 124.812 638.667 126.095C635.262 125.984 634.899 124.567 633.393 121.728C623.229 102.556 614.091 82.8108 604.634 63.3033C604.634 63.3033 605.282 61.1315 605.345 60.9213Z"/><path fill="#FF6B00" transform="scale(2 2)" d="M806.076 61.744C807.916 61.9856 808.374 62.1935 808.923 63.8313C807.621 69.8676 783.841 122.545 779.968 128.192C777.892 127.326 778.214 127.795 776.984 126.232C776.524 122.898 795.751 85.2943 797.927 78.5381C798.622 76.3789 804.457 64.1151 806.076 61.744Z"/><path fill="#FF6B00" transform="scale(2 2)" d="M937.479 265.724C939.469 265.644 939.75 265.73 940.922 267.054C941.205 268.865 941.392 268.065 940.412 269.55C936.415 271.377 926.559 270.401 921.735 270.581L876.925 272.516C874.988 272.533 874.527 272.678 873.506 271.185C873.586 268.171 875.648 267.545 878.493 267.439C898.147 266.704 917.82 266.304 937.479 265.724Z"/><path fill="#FF6B00" transform="scale(2 2)" d="M496.457 220.882C500.777 221.258 505.735 222.889 509.981 223.994L528.995 228.843C539.02 231.404 549.625 234.023 559.643 236.762C561.089 237.157 561.115 237.495 561.942 238.532C561.902 240.335 561.789 239.937 560.733 241.721C558.519 241.498 544.001 237.678 541.74 236.912C535.017 234.635 499.255 227.273 495.911 223.728C495.527 221.919 495.497 222.851 496.457 220.882Z"/><path fill="#FF6B00" transform="scale(2 2)" d="M743.348 122.261C745.118 122.739 745.815 123.048 746.468 124.65C744.672 137.386 738.643 152.737 735.976 165.605C735.004 170.291 731.974 184.275 729.859 187.242C729.11 186.85 726.624 185.527 726.848 184.71C729.96 173.391 738.35 129.789 743.348 122.261Z"/><path fill="#FF6B00" transform="scale(2 2)" d="M643.521 135.407C647.876 138.322 661.486 173.327 665.49 179.785C666.295 181.083 669.959 189.335 670.448 190.947C669.979 192.748 669.955 192.275 668.08 193.713C663.772 191.43 649.789 155.489 645.86 149.089C644.819 147.392 641.472 139.82 640.876 137.833C641.613 136.299 641.854 136.525 643.521 135.407Z"/><path fill="#FF6B00" transform="scale(2 2)" d="M773.075 134.878C774.723 135.103 775.991 135.07 776.73 136.594C775.909 139.26 769.853 151.317 768.135 154.601C762.591 165.199 756.507 180.169 750.142 190.044C748.216 189.698 747.556 189.519 746.492 187.904C746.88 185.261 770.784 138.256 773.075 134.878Z"/><path fill="#FF6B00" transform="scale(2 2)" d="M851.538 204.9C853.517 205.762 853.906 206.084 853.53 208.067C850.851 211.171 807.028 233.36 800.653 236.105C798.861 235.875 798.635 235.469 797.833 234.048L798.154 232.95C801.039 229.899 843.925 208.838 851.538 204.9Z"/><path fill="#1A6FD4" transform="scale(2 2)" d="M167.396 767.514C170.442 767.489 172.528 767.392 174.92 769.586C177.969 773.209 177.943 778.456 174.936 781.936C170.512 787.056 165.073 781.463 165.025 781.488C164.765 781.906 164.788 782.108 164.719 782.625C164.701 784.592 165.036 787.962 164.314 789.64C164.039 790.276 159.654 790.266 159.647 789.661C159.566 782.643 159.26 775.321 159.723 768.352C160.303 767.584 163.392 767.856 163.771 768.291C164.897 769.581 166.159 768.137 167.396 767.514Z"/><path fill="#FFFFFE" transform="scale(2 2)" d="M167.118 771.357C173.077 771.626 174.055 776.455 169.94 780.325C167.995 780.286 166.713 780.087 164.811 779.956C164.752 776.505 163.673 774.001 166.429 771.933L167.118 771.357Z"/><path fill="#1A6FD4" transform="scale(2 2)" d="M106.684 465.221C111.554 463.77 116.675 466.558 118.099 471.435C119.524 476.313 116.71 481.419 111.825 482.818C106.976 484.207 101.916 481.418 100.502 476.576C99.0876 471.735 101.85 466.661 106.684 465.221Z"/><path fill="#1A6FD4" transform="scale(2 2)" d="M284.559 767.565C288.993 767.392 294.061 767.54 295.85 772.298C298.036 778.115 295.757 781.764 290.623 783.991C286.497 784.376 282.023 784.256 279.649 780.193C278.564 778.306 278.26 776.068 278.804 773.96C279.817 770.184 281.436 769.387 284.559 767.565Z"/><path fill="#FFFFFE" transform="scale(2 2)" d="M286.177 771.855C288.347 771.05 290.76 772.141 291.588 774.302C292.417 776.463 291.351 778.888 289.2 779.739C287.787 780.298 286.183 780.055 284.999 779.103C283.815 778.15 283.235 776.636 283.478 775.136C283.722 773.636 284.753 772.383 286.177 771.855Z"/><path fill="#FF6B00" transform="scale(2 2)" d="M708.113 40.8167C709.683 41.0904 710.043 40.9912 711.244 42.0241C712.127 47.0185 711.412 61.8043 711.582 67.8539C711.799 75.6135 711.435 85.1529 711.446 93.0361C711.447 93.9811 711.021 94.6596 710.507 95.4076C708.213 94.7968 708.567 95.2564 707.23 93.7633C706.168 84.1947 707.382 72.4029 706.964 62.5804C706.794 58.5996 706.354 43.0685 708.113 40.8167Z"/><path fill="#FF6B00" transform="scale(2 2)" d="M851.686 240.062C855.186 239.623 857.49 243.086 851.492 244.833L850.511 245.112C844.368 246.897 836.939 248.924 830.74 250.376L827.509 251.113L824.493 251.841L822.24 252.371C821.519 252.538 820.714 252.734 819.992 252.89C817.325 253.453 814.663 254.038 812.006 254.645C810.435 255.01 809.204 255.322 807.646 255.781C804.619 256.124 801.867 252.388 809.756 250.611L812.006 250.105C815.849 249.267 819.679 248.37 823.494 247.414C832.639 245.052 842.573 242.167 851.686 240.062Z"/><path fill="#1A6FD4" transform="scale(2 2)" d="M764.811 629.3C769.342 628.135 773.965 630.837 775.174 635.356C776.382 639.875 773.724 644.524 769.217 645.776C764.648 647.044 759.923 644.342 758.698 639.762C757.473 635.181 760.22 630.481 764.811 629.3Z"/><path fill="#1A6FD4" transform="scale(2 2)" d="M222.641 761.253C229.431 761.078 227.477 761.316 227.438 769.219C230.728 767.813 235.965 765.248 237.749 771.549C238.147 772.821 238.286 783.23 237.881 783.418C231.599 786.33 233.295 779.673 233.314 776.875C233.278 774.59 234.011 771.485 230.004 771.91C223.334 772.615 232.254 787.228 222.752 783.42C222.541 783.335 222.555 764.028 222.641 761.253Z"/><path fill="#1A6FD4" transform="scale(2 2)" d="M246.949 767.531C251.751 767.305 258.773 767.351 257.781 776.402C257.674 777.381 254.063 777.16 253.496 777.063C249.591 776.396 242.389 777.805 249.767 780.542C250.676 780.882 252.58 779.164 253.691 778.617C255.887 779.715 258.688 780.607 255.399 782.744C251.431 785.485 243.332 784.359 241.81 779.121C240.106 773.256 241.936 770.086 246.949 767.531Z"/><path fill="#FFFFFE" transform="scale(2 2)" d="M247.947 770.794C249.349 770.887 254.35 771.654 251.427 773.979C247.356 773.98 244.902 774.993 247.947 770.794Z"/><path fill="#1A6FD4" transform="scale(2 2)" d="M185.419 767.538C193.811 767.263 194.807 769.056 196.788 776.884C194 776.882 178.862 775.537 187.998 780.51C188.747 780.918 190.402 780.012 191.186 779.482L192.23 778.771C193.725 779.494 196.31 780.792 193.717 782.415C183.191 789.004 173.198 774.489 185.419 767.538Z"/><path fill="#FFFFFE" transform="scale(2 2)" d="M187.426 770.536C189.54 770.974 193.216 773.266 189.615 774.147C186.486 774.006 181.749 773.508 187.426 770.536Z"/><path fill="#FF6B00" transform="scale(2 2)" d="M470.753 263.353C483.465 262.789 497.394 264.774 510.196 264.741C513.37 264.733 514.586 265.443 514.242 268.605C512.972 268.935 511.823 269.215 510.501 269.19C506.278 269.108 471.884 267.809 470.981 266.75C470.561 266.257 470.537 265.62 470.605 265.005C470.631 264.768 470.668 264.532 470.689 264.294C470.718 263.981 470.732 263.666 470.753 263.353Z"/><path fill="#FF6B00" transform="scale(2 2)" d="M585.179 217.3C592.567 218.196 610.795 229.895 618.738 233.211C619.566 233.557 619.168 236.103 619.074 236.74C611.64 236.173 591.375 224.862 584.648 220.246C584.186 219.929 585.087 217.589 585.179 217.3Z"/><path fill="#FF6B00" transform="scale(2 2)" d="M661.766 76.1982C665.838 76.9406 665.439 77.9103 666.405 82.2567L666.909 84.5072C668.569 91.7676 670.022 99.0596 671.934 106.267C672.94 110.059 673.822 110.466 672.237 113.809C667.948 113.49 668.873 112.268 667.598 107.743C666.527 103.942 665.559 99.8398 664.65 95.9919L663.637 91.7349C662.91 88.563 660.173 79.5783 661.407 77.007L661.766 76.1982Z"/><path fill="#1A6FD4" transform="scale(2 2)" d="M304.868 767.741C305.159 767.859 305.068 767.797 305.191 767.912C305.349 768.421 304.898 768.865 305.019 769.364L305.252 769.424C305.996 769.162 306.657 767.774 307.752 767.626C317.708 766.282 315.318 777.212 315.205 783.375C315.192 784.069 311.235 783.929 310.944 783.212C310.166 781.295 310.573 777.043 310.553 774.875C310.497 774.134 310.498 773.604 310.106 772.955C309.814 772.466 309.323 772.128 308.762 772.031C307.942 771.895 307.128 772.251 306.499 772.752C303.382 775.233 305.127 779.209 304.572 782.521C304.532 782.755 304.453 783.211 304.209 783.326C303.424 783.699 301.251 783.683 300.537 783.34C300.342 783.246 300.242 783.152 300.186 782.948C299.789 781.5 299.618 768.93 300.213 768.234C300.787 767.561 304.13 767.765 304.868 767.741Z"/><path fill="#FF6B00" transform="scale(2 2)" d="M895.552 228.578C898.168 228.149 902.546 228.741 898.915 232.231C898.635 232.5 894.036 233.703 893.242 233.896L891.241 234.387C883.517 236.148 875.784 238.53 868.102 240.535C866.449 240.826 863.3 241.409 863.963 237.773C864.15 236.747 868.93 235.465 870.005 235.177L872.007 234.657C872.646 234.497 873.367 234.304 874.008 234.15L876.006 233.672C882.558 232.085 889.102 230.126 895.552 228.578Z"/><path fill="#FF6B00" transform="scale(2 2)" d="M574.127 241.884C581.627 242.651 593.376 246.377 601.011 248.366C601.925 248.596 602.836 248.838 603.744 249.093L604.531 249.317C609.104 250.541 609.238 250.747 607.663 254.656L600.259 252.884C595.224 251.725 590.208 250.488 585.211 249.174L583.213 248.667C577.542 247.256 572.327 247.852 574.127 241.884Z"/><path fill="#FF6B00" transform="scale(2 2)" d="M752.234 85.692C752.677 85.7633 755.826 86.0586 755.873 86.8253C756.269 93.2639 752.365 101.5 751.151 107.784C750.463 111.343 749.596 113.7 748.094 116.369C742.389 115.782 745.867 108.821 746.844 105.215C748.261 99.9842 749.675 94.7214 751.12 89.5056L751.346 88.7134C751.646 87.624 751.892 86.7736 752.234 85.692Z"/><path fill="#FF6B00" transform="scale(2 2)" d="M880.402 137.3C881.457 137.427 882.202 137.389 882.897 138.267C883.295 138.765 883.464 139.409 883.361 140.038C883.103 141.603 864.486 155.888 861.749 157.837C858.922 158.512 858.875 155.159 859.034 154.979C862.53 151.035 876.812 139.904 880.402 137.3Z"/><path fill="#FF6B00" transform="scale(2 2)" d="M674.273 125.21C678.351 126.127 677.579 127.905 678.633 132.23L679.647 136.489C680.745 140.894 681.656 145.391 682.821 149.778C683.632 152.829 683.643 152.487 682.504 155.259C676.875 154.678 678.159 149.646 676.858 144.509C675.909 140.765 672.354 128.723 673.881 125.951L674.273 125.21Z"/><path fill="#1A6FD4" transform="scale(2 2)" d="M261.395 760.986C262.483 760.946 265.117 760.645 265.982 761.101C266.364 761.855 266.201 780.825 266.28 783.802C260.642 784.099 261.392 784.576 261.401 778.759C261.409 772.848 261.345 766.901 261.395 760.986Z"/><path fill="#FF6B00" transform="scale(2 2)" d="M833.124 270.795C833.3 269.983 833.993 269.887 834.873 269.808C840.425 269.281 846.87 269.105 852.361 268.786C854.141 268.683 863.246 267.836 863.887 268.613C867.031 272.427 861.483 272.819 859.999 272.893C855.368 273.126 851.871 273.128 847.728 273.077C845.147 272.695 842.596 272.175 840.004 271.865L833.124 270.795Z"/><path fill="#1A6FD4" transform="scale(2 2)" d="M204.45 767.752C204.632 768.508 204.489 769.686 204.854 770.117C204.543 770.124 211.506 763.17 210.471 771.003C210.349 771.927 206.501 772.267 205.312 773.821C203.958 775.59 204.511 776.279 204.509 778.872C204.511 779.499 204.521 780.127 204.54 780.754C204.553 781.124 204.745 783.17 204.284 783.319C197.814 785.409 199.818 780.771 199.761 777.288C199.717 774.53 199.566 768.975 200.017 768.111C200.894 767.581 203.373 767.759 204.45 767.752Z"/><path fill="#FF6B00" transform="scale(2 2)" d="M682.571 165.161C686.719 165.534 686.38 165.236 687.384 169.755L687.846 171.778C688.779 175.804 691.384 184.035 690.724 187.423C690.335 187.456 687.75 187.889 687.492 187.238C685.147 181.3 682.228 171.529 682.571 165.161Z"/><path fill="#1A6FD4" transform="scale(2 2)" d="M213.536 767.972C213.952 767.97 218.228 767.77 218.271 768.274C218.682 773.149 218.584 778.922 218.471 783.871C213.744 783.938 213.382 784.956 213.526 780.253C213.647 776.291 213.539 771.962 213.536 767.972Z"/><path fill="#1A6FD4" transform="scale(2 2)" d="M270.542 767.964C271.016 767.965 275.099 767.776 275.172 768.355C275.762 772.99 275.564 779.029 275.391 783.775C269.434 783.976 270.639 784.551 270.562 778.255C270.52 774.842 270.543 771.38 270.542 767.964Z"/><path fill="#1A6FD4" transform="scale(2 2)" d="M214.7 760.143C215.703 759.724 216.855 759.885 217.704 760.564C218.553 761.243 218.964 762.33 218.775 763.401C218.587 764.471 217.83 765.354 216.801 765.703C215.284 766.217 213.632 765.436 213.065 763.937C212.499 762.439 213.222 760.761 214.7 760.143Z"/><path fill="#1A6FD4" transform="scale(2 2)" d="M271.566 760.743C272.399 760.215 273.451 760.177 274.32 760.644C275.188 761.111 275.737 762.011 275.756 762.997C275.774 763.982 275.259 764.902 274.409 765.401C273.125 766.155 271.473 765.741 270.697 764.47C269.921 763.199 270.308 761.54 271.566 760.743Z"/></svg>