<?xml version="1.0" encoding="utf-8" ?><svg xmlns="http://www.w3.org/2000/svg" xmlns:xlink="http://www.w3.org/1999/xlink" width="2048" height="2048" viewBox="0 0 2048 2048"><path fill="white" transform="scale(2 2)" d="M0 0L1024 0L1024 1024L0 1024L0 0Z"/><path fill="#055190" transform="scale(2 2)" d="M309.457 179.351C350.939 174.989 353.763 149.677 366.86 118.429C377.51 93.0163 411.806 68.0422 437.459 59.6764C456.502 53.4661 475.142 53.6604 493.715 63.0915C509.297 71.0217 521.04 84.8795 526.306 101.552C538.597 101.472 550.89 101.492 563.181 101.612C566.875 105.263 572.701 113.814 575.553 118.307L636.622 130.89C635.074 141.362 630.53 160.766 626.658 170.497C621.165 180.218 617.385 186.922 609.63 195.159C612.146 200.56 615.087 206.56 617.319 212.004L613.612 222.406C609.742 232.521 602.992 243.854 596.416 252.517C604.196 253.171 609.103 254.166 616.554 256.759C628.757 261.006 657.034 280.902 665.051 290.662C665.862 291.633 666.614 292.65 667.304 293.709C659.654 297.378 650.803 298.585 642.371 298.5C657.905 309.356 666.719 317.022 675.498 334.42C688.256 330.712 723.448 315.248 729.447 305.151L729.316 304.692C727.434 304.245 724.767 305.03 722.818 305.507C732.084 290.892 740.119 289.18 752.215 302.444C754.903 299.251 756.116 297.924 759.225 295.168C757.767 281.014 751.296 274.863 736.977 275.002C734.098 277.358 731.271 279.985 728.599 282.581C715.893 294.931 702.694 305.91 688.832 316.903C695.691 295.641 706.559 282.402 723.071 267.614C736.917 255.213 750.92 260.497 764.016 270.087C781.184 263.694 798.872 265.323 802.189 287.052C823.426 288.117 826.296 298.274 827.807 317.353L833.579 317.54C832.683 326.293 832.649 330.726 826.558 337.833C851.078 343.188 870.304 343.858 894.427 346.539C901.55 448.186 890.216 569.888 822.257 651.794C802.521 675.581 769.369 696.5 742.949 713.187C697.016 684.575 663.208 662.162 635.616 613.782C622.448 590.691 615.784 576.902 606.63 551.118C584.335 573.086 570.184 585.962 544.252 603.66C556.81 602.689 565.422 602.334 577.667 605.74C647.701 625.225 674.986 704.837 626.228 760.782C618.638 769.491 611.962 775.345 603.351 782.87L639.642 827.632C645.368 834.693 653.679 845.547 659.705 852.056C666.701 849.701 699.224 839.204 705.22 838.77C708.666 838.499 712.121 839.16 715.224 840.683C720.528 843.33 723.35 847.759 725.258 853.136C733.877 854.538 741.152 858.07 743.075 867.502L742.75 868.091L742.013 867.745C738.884 866.297 738.223 866.152 734.784 865.788C731.595 867.296 729.634 868.479 727.738 871.626C727.597 873.342 727.346 872.649 728.256 873.852C731.944 872.521 730.578 866.62 739.104 871.046C753.577 878.56 761.405 893.055 750.259 907.219C750.126 907.445 749.993 907.671 749.86 907.897C749.506 908.21 749.152 908.523 748.799 908.836C748.312 908.105 748.633 905.426 748.653 904.733C748.428 902.877 747.458 899.678 746.513 898.207C743.219 893.076 739.232 899.124 734.895 899.398C735.088 899.386 732.014 898.725 731.852 898.691C727.682 903.263 747.899 930.788 717.081 941.178C721.143 935.133 721.3 933.062 722.036 926.009C710.723 928.437 706.087 922.521 702.104 913.071C701.091 914.103 700.397 915.138 699.551 916.301C702.624 927.082 702.633 938.445 692.572 946.193C685.655 951.52 677.6 950.904 669.443 949.642C675.644 945.921 677.481 943.918 681.529 938.047C680.683 937.725 679.842 937.394 679.004 937.055C672.267 934.312 670.774 932.102 668.141 925.798C662.374 928.207 656.64 932.285 650.251 933.17C641.991 934.313 633.511 930.56 627.075 925.613C615.287 916.552 610.719 905.229 608.71 891.033C598.297 884.236 584.836 880.165 572.389 879.866C573.311 876.107 573.969 871.063 573.636 867.195C573.058 860.048 569.593 853.444 564.04 848.907C551.318 838.3 527.956 836.971 513.446 844.535C507.575 847.596 504.358 851.123 500.245 856.154C500.184 855.755 500.126 855.356 500.071 854.956C497.322 834.753 500.984 823.958 512.851 808.349C504.171 811.36 500.905 812.86 493.003 817.556C493.516 801.055 497.518 789.904 511.174 779.897C515.692 776.389 521.148 773.52 524.973 769.196C538.578 753.813 533.625 730.924 518.875 718.301C508.783 709.664 498.424 707.2 485.504 708.089C485.961 750.123 466.739 788.749 421.574 796.828C408.707 799.13 396.641 797.801 384.457 804.732C377.925 808.448 374.144 812.527 371.903 819.879C364.313 846.441 379.674 882.657 412.463 874.411C431.226 869.693 445.808 865.263 455.904 886.669C457.03 887.27 458.129 887.92 459.198 888.617C466.88 893.661 468.392 901.874 470.145 910.082C462.836 902.324 458.967 905.113 449.21 905.788C438.133 906.555 435.413 901.695 442.789 893.394C437.046 878.69 424.5 887.445 413.28 889.222C394.314 892.227 375.816 885.982 365.445 869.074C355.266 852.477 351.777 828.359 360.493 810.288C368.498 793.69 386.555 786.826 403.713 783.961C411.573 782.716 419.965 783.847 427.683 780.664C455.712 771.387 470.901 744.678 470.81 716.096C469.987 699.744 467.934 684.144 468.671 667.747C470.455 628.037 491.58 597.998 522.153 574.42C538.293 561.972 560.746 551.407 571.185 533.374C575.148 526.529 573.836 515.677 571.298 508.484C552.059 518.786 553.328 523.673 544.079 541.338C535.038 520.479 537.571 499.564 544.225 478.766C541.749 480.778 539.132 482.61 536.393 484.246C516.849 495.73 490.075 496.206 468.586 490.646C501.045 474.063 522.303 453.578 508.795 415.374C499.718 451.464 476.391 467.997 443.529 481.63C440.914 489.475 434.575 501.926 430.844 509.455C406.375 558.115 374.705 602.804 336.903 642.016C330.568 648.678 321.151 659.051 313.997 664.03C298.615 674.737 277.144 682.599 258.193 679.045C245.954 676.749 233.772 671.096 226.285 660.796C218.719 650.386 216.908 633.397 219.386 621.029C226.735 584.366 270.55 563.358 298.941 543.274C320.828 527.79 341.483 508.411 347.106 480.962C349.735 468.129 345.887 452.62 338.456 442.1C326.658 425.397 310.087 421.75 291.395 418.394C291.69 422.373 291.882 425.383 291.818 429.356L292.492 429.391C317.457 430.892 337.212 451.089 334.146 476.513C328.029 524.78 271.231 541.957 239.201 569.965C207.691 597.518 186.159 641.024 217.934 677.089C254.067 718.101 319.008 691.812 348.49 656.264C351.741 652.344 355.765 648.644 359.586 645.223C367.194 658.417 373.576 677.478 376.154 692.437C379.674 712.862 376.557 730.282 364.564 747.363C352.083 765.141 325.273 777.85 304.235 781.245C311.548 787.142 314.717 790.593 320.983 797.445C311.96 800.42 301.383 802.769 292.106 804.943C319.13 819.5 325.168 843.8 313.91 871.46C324.024 875.448 337.092 881.94 343.246 891.466C344.794 893.862 344.742 896.154 344.757 898.93C337.789 910.849 336.013 927.28 347.617 937.167C350.066 939.253 352.978 940.722 356.111 941.452C368.156 944.321 370.593 934.381 382.176 938.777C385.688 940.11 386.971 940.823 389.707 943.421L390.199 943.897C393.514 943.515 398.48 943.204 401.745 943.561L403.735 943.789L404.528 943.894C405.629 941.926 405.116 937.826 403.94 935.862C400.854 930.708 393.607 928.883 388.233 927.309C396.22 916.626 404.964 916.074 414.527 926.51C416.751 928.937 418.453 932.885 420.503 935.754C422.702 937.104 429.889 934.704 433.83 934.373L434.581 934.313L436.191 928.915C435.15 925.929 434.016 922.933 431.576 920.843C423.768 914.153 413.848 911.604 403.947 911.976C409.516 905.23 416.226 901.511 425.278 902.635C435.978 903.964 440.825 910.237 446.994 917.989C449.296 916.39 454.195 912.995 455.96 910.85C456.268 910.476 455.955 908.807 457.14 907.443C457.536 907.424 458.745 907.357 459.143 907.477C475.94 912.575 483.566 937.46 469.723 949.715C467.946 951.288 466.026 952.486 464.053 953.754C464.896 950.055 466.722 939.168 462.393 939.064C458.163 938.962 454.585 938.188 449.826 936.874L449.278 937.429C448.701 940.935 450.715 945.681 450.472 949.509C449.441 965.717 438.034 970.551 423.88 970.187C428.486 966.577 434.859 961.185 426.938 957.138C422.016 954.624 420.109 952.574 417.317 947.907L414.57 952.895C414.93 971.471 401.647 981.165 384.058 977.865L383.728 977.28C388.315 973.681 389.855 972.683 393.424 968.12C392.083 967.333 389.093 965.646 388.058 964.643C383.784 960.505 385.061 956.481 380.461 953.417C379.293 953.746 378.121 954.061 376.945 954.363C365.246 957.353 354.068 958.191 343.361 951.743C334.827 946.653 328.703 938.34 326.371 928.682C323.947 918.89 324.585 905.697 329.91 896.877C318.043 886.789 303.016 882.132 288.108 878.684C294.755 874.847 300.786 867.918 301.733 860.167C304.954 833.824 272.969 813.629 250.269 826.668C248.077 827.926 246.176 829.417 244.199 830.927C247.764 804.596 259.731 793.961 282.549 782.958C271.37 782.782 266.76 783.67 256.589 788.248C265.439 772.572 281.468 761.472 299.15 758.769C347.033 751.449 357.336 727.905 340.465 683.694C337.872 685.593 335.041 687.934 332.447 689.707C309.877 705.127 279.911 715.949 252.467 711.607C233.241 708.565 213.018 696.143 201.925 680.378C190.352 663.976 185.717 643.671 189.027 623.873C191.26 611.138 196.456 601.044 202.955 590.212C222.63 557.419 255.633 541.054 286.24 520.487C306.219 507.062 332.052 479.68 314.254 454.566C307.086 444.45 297.621 444.451 286.769 443.147C283.373 448.485 277.87 454.409 273.198 458.626C254.059 475.615 229.065 484.499 203.497 483.402C180.836 482.216 165.12 473.254 150.305 456.865C161.549 459.476 172.406 460.022 183.722 457.691C151.304 448.758 132.822 429.296 124.081 397.235C141.244 406.402 162.786 417.999 182.275 407.854C188.669 404.306 194.097 399.077 199.98 394.715C227.603 374.236 259.781 383.759 283.793 403.978C288.328 404.283 292.931 404.652 297.402 405.056C350.904 409.893 379.346 463.526 351.323 510.138C328.227 548.79 286.632 564.802 253.299 593.091C237.104 606.835 223.081 635.457 240.04 654.463C258.347 674.98 295.125 663.477 312.693 646.306C358.277 601.6 396.675 549.664 423.431 491.529C439.799 455.963 461.352 413.302 430.124 379.591C433.593 397.502 429.126 414.709 415.092 426.719C416.84 396.392 402.274 389.81 384.557 367.278C376.342 356.83 371.86 348.905 366.866 336.787C365.283 331.771 362.921 322.706 359.786 318.822C355.046 312.952 350.118 306.869 345.382 300.97C336.762 288.262 331.881 273.391 331.292 258.046C330.693 235.769 338.915 214.156 354.171 197.91C333.019 195.782 321.307 191.95 303.583 180.146C302.526 179.494 302.816 179.94 302.531 178.949C304.185 178.549 307.61 179.136 309.457 179.351Z"/><path fill="#1A4FA0" transform="scale(2 2)" d="M748.653 904.733C749.225 906.238 749.145 906.171 750.259 907.219C750.126 907.445 749.993 907.671 749.86 907.897C749.506 908.21 749.152 908.523 748.799 908.836C748.312 908.105 748.633 905.426 748.653 904.733Z"/><path fill="#C66D0D" transform="scale(2 2)" d="M442.212 73.1801C455.992 67.3958 469.036 67.5383 482.88 73.2421C494.17 77.812 503.13 86.7567 507.718 98.0388C509.918 103.487 510.027 107.753 509.987 113.537C502.898 120.079 490.687 126.159 480.97 126.643C481.435 129.059 482.39 133.373 481.543 135.569C479.963 135.188 475.304 130.584 473.154 129.325C459.541 121.356 441.393 118.034 428.556 129.355C423.81 144.649 431.145 162.003 446.688 167.579C449.675 168.65 465.711 171.251 466.897 172.18C467.777 176.221 469.821 182.666 469.786 186.328C453.512 206.77 453.053 237.153 465.952 259.372C471.55 269.016 480.269 278.945 489.058 285.816C489.73 286.348 490.414 286.865 491.111 287.365C489.359 275.77 488.255 267.502 488.355 255.662C503.772 273.293 523.407 280.774 546.197 272.773C576.83 262.019 612.282 261.307 636.833 285.502C627.935 285.826 601.058 289.011 592.044 291.109C622.937 299.405 644.018 307.848 660.81 336.813C661.58 338.148 662.326 339.497 663.049 340.859C650.644 335.908 641.467 333.256 627.76 333.571C621.023 333.725 612.653 334.272 606.251 332.766C601.4 331.624 595.272 327.827 590.43 325.853C577.444 320.559 562.325 316.223 548.362 315.265L547.308 317.099C559.73 322.333 571.994 329.399 582.878 337.315C604.82 353.273 616.18 379.728 608.07 406.284C594.701 380.983 572.476 366.964 545.963 358.079C563.287 378.287 578.933 408.204 566.614 434.773C552.605 464.986 538.878 477.306 505.171 480.041C523.693 463.665 532.644 441.453 524.774 417.187C518.95 399.231 502.971 379.098 486.071 370.477C507.174 407.643 491.335 435.985 459.431 459.034C465.877 435.351 466.209 404.836 451.471 384.198C443.873 373.558 436.699 367.348 430.796 354.377C421.62 334.214 418.976 310.74 426.419 289.73L429.753 281.167C427.198 283.7 426.295 284.517 424.31 287.543C400.564 317.728 408.069 347.027 414.041 381.054C410.182 375.686 405.309 370.943 401.048 365.959C384.585 346.707 372.282 321.917 374.471 296.004C376.759 268.934 386.204 249.237 406.35 231.585L404.944 229.573C378.237 240.014 358.215 260.844 355.148 290.198C352.428 285.592 350.176 280.725 348.428 275.669C339.94 251.058 347.117 225.935 364.343 207.316C378.505 192.008 384.336 191.352 394.139 171.148L393.219 168.994C391.704 170.596 390.079 172.089 388.355 173.464C374.613 184.601 360.08 184.961 343.418 183.251C351.544 176.586 358.606 170.331 363.9 161.211C377.748 137.362 377.137 111.329 403.925 95.9911C429.122 81.5644 444.658 86.021 470.808 92.4161C463.336 83.6808 455.392 76.8262 443.319 75.5473C440.348 75.2539 437.91 75.2327 442.212 73.1801Z"/><path fill="#055190" transform="scale(2 2)" d="M466.897 172.18C465.026 175.041 460.737 177.735 457.575 178.834C435.323 186.567 420.595 168.265 413.938 149.483C408.09 132.811 414.943 116.34 432.353 110.796C450.462 105.029 473.79 105.161 480.97 126.643C481.435 129.059 482.39 133.373 481.543 135.569C479.963 135.188 475.304 130.584 473.154 129.325C459.541 121.356 441.393 118.034 428.556 129.355C423.81 144.649 431.145 162.003 446.688 167.579C449.675 168.65 465.711 171.251 466.897 172.18Z"/><path fill="#1A4FA0" transform="scale(2 2)" d="M404.944 229.573C406.839 228.674 409.116 227.982 411.131 227.338C409.613 228.751 407.992 230.343 406.35 231.585L404.944 229.573Z"/><path fill="#1A4FA0" transform="scale(2 2)" d="M547.308 317.099C546.838 316.866 543.907 315.865 544.125 315.218C544.223 315.265 544.322 315.312 544.421 315.359L544.998 314.823C546.103 314.965 547.328 315.002 548.362 315.265L547.308 317.099Z"/><path fill="#1A4FA0" transform="scale(2 2)" d="M393.219 168.994C396.682 164.72 395.118 169.172 394.139 171.148L393.219 168.994Z"/><path fill="#E87722" transform="scale(2 2)" d="M442.212 73.1801L443.319 75.5473C440.348 75.2539 437.91 75.2327 442.212 73.1801Z"/><path fill="white" transform="scale(2 2)" d="M741.727 339.895C743.528 340.591 748.218 343.526 749.964 344.66C785.543 367.77 822.162 373.251 863.38 377.14C865.107 438.691 860.884 497.403 839.711 555.778C824.99 596.363 804.399 630.82 768.841 656.149C760.409 662.155 753.096 667.593 743.633 672.094C732.597 666.664 712.885 654.086 703.404 645.985C669.179 616.743 644.812 569.802 633.527 527.121C638.472 530.058 643.307 533.885 648.256 536.834C658.195 542.756 670.1 546.041 681.378 548.146C684.135 562.163 691.382 572.8 702.756 581.316C714.338 589.322 729.465 593.173 742.652 586.929C747.427 584.667 750.773 581.914 754.866 578.649L753.963 584.032C757.293 590.113 759.635 590.89 765.904 593.007C762.563 599.175 760.52 601.219 754.322 604.144C770.301 606.483 782.182 601.311 783.459 583.078C783.72 579.339 782.59 574.502 782.189 570.635L782.723 570.53C786.066 573.833 789.979 576.478 794.78 576.479C796.5 576.479 797.902 576.364 799.496 576.986C802.992 580.176 800.557 587.113 798.926 590.804C811.758 584.367 816.785 573.232 811.358 559.022C810.626 557.107 806.496 552.072 806.498 551.063L807.286 550.525C812.629 551.621 814.739 549.961 819.457 547.333C822.881 553.365 823.054 554.711 822.432 561.544C828.136 556.351 830.357 551.731 829.798 543.178C829.239 534.609 820.752 522.296 811.172 522.068C808.973 522.016 807.269 526.819 805.49 529.054L805.095 529.542C802.393 527.037 801.54 526.396 798.413 524.441C802.55 522.911 806.444 521.269 810.697 520.037C813.335 519.274 817.187 519.851 818.773 518.384C818.015 509.9 808.481 504.647 801.079 502.805C797.929 498.063 794.945 494.2 789.663 491.602C786.571 490.047 783.111 489.371 779.66 489.649C774.133 490.074 743.997 500.86 736.374 503.376C708.253 483.174 681.427 459.815 653.613 439.096C645.765 433.25 636.28 425.116 628.323 419.859C630.965 409.472 630.828 388.919 629.961 377.821C659.415 375.054 698.539 366.023 724.847 351.796C730.265 348.865 736.756 343.73 741.727 339.895Z"/><path fill="white" transform="scale(2 2)" d="M553.751 617.709C597.99 613.909 641.447 659.205 636.385 703.29C632.143 740.228 610.379 759.112 583.544 781.04C588.572 786.642 593.618 793.307 598.374 799.231L627.689 836.076C635.651 846.018 646.962 857.923 654.11 868.052C666.002 864.421 677.916 860.868 689.854 857.393C695.023 855.908 700.948 854.022 706.212 853.177C712.238 852.208 712.82 862.402 713.165 866.115C699.239 864.03 690.402 863.605 683.547 877.518C694.272 875.602 727.065 878.817 719.292 896.246C719.157 896.395 709.006 901.12 708.592 901.182C708.072 901.034 706.899 900.845 706.683 900.387C698.682 883.454 689.25 875.33 673.113 892.787C679.077 893.367 682.46 894.183 687.645 897.419C697.728 908.4 684.317 909.902 678.685 913.402C663.3 900.539 658.806 921.236 644.323 918.482C634.744 916.661 626.978 906.115 624.872 896.862C623.857 892.403 623.743 886.607 620.978 882.961C614.874 874.912 598.121 869.549 588.779 867.773C584.161 837.909 565.453 820.333 535.325 818.348C543.324 811.763 548.693 808.411 556.714 802.454C545.597 798.457 539.307 797.12 527.847 795.417C541.689 783.032 554.919 768.673 560.012 750.447C563.993 736.203 562.33 721.883 554.697 709.192C547.643 697.537 536.234 689.173 522.997 685.954C508.041 682.308 494.214 685.044 481.209 692.941C482.114 675.182 488.888 658.225 500.469 644.731C514.88 627.99 531.849 619.3 553.751 617.709Z"/><path fill="white" transform="scale(2 2)" d="M509.987 113.537C511.507 115.211 511.675 115.441 514.311 115.477C528.207 115.667 542.086 115.454 555.999 115.631C560.015 121.251 563.568 126.618 568.606 131.384C576.289 132.456 614.971 140.323 620.041 142.899C620.06 146.132 604.879 151.349 601.442 152.896C605.097 159.332 608.001 164.46 610.047 171.704C605.334 181.007 600.716 187.026 590.53 190.707C577.726 195.334 564.434 186.628 554.218 179.354C541.305 194.562 535.813 211.619 542.609 230.828C552.321 220.375 559.652 214.292 573.714 209.994C581.748 207.539 590.032 206.381 597.956 203.943C599.427 207.221 600.95 210.358 601.955 213.808C599.24 223.24 592.217 237.303 583.931 243.195C578.134 247.318 574.63 240.594 572.135 236.635C557.387 234.788 539.494 231.942 526.66 241.683C521.967 245.246 519.616 250.039 517.14 255.207C502.546 247.439 492.302 235.671 487.321 219.708C483.993 224.044 481.547 227.377 478.961 232.227C476.923 240.752 475.92 242.558 475.141 251.766C474.435 249.781 473.695 247.75 473.161 245.715C472.801 244.393 472.459 243.066 472.133 241.736C469.3 229.669 468.876 220.118 470.299 207.768C470.584 205.287 470.255 203.608 471.393 201.581C471.912 195.7 475.671 183.805 477.659 178.074C475.038 180.626 472.316 183.638 469.786 186.328C469.821 182.666 467.777 176.221 466.897 172.18C465.711 171.251 449.675 168.65 446.688 167.579C431.145 162.003 423.81 144.649 428.556 129.355C441.393 118.034 459.541 121.356 473.154 129.325C475.304 130.584 479.963 135.188 481.543 135.569C482.39 133.373 481.435 129.059 480.97 126.643C490.687 126.159 502.898 120.079 509.987 113.537Z"/><path fill="#C66D0D" transform="scale(2 2)" d="M471.393 201.581C472.464 214.553 475.966 220.305 478.961 232.227C476.923 240.752 475.92 242.558 475.141 251.766C474.435 249.781 473.695 247.75 473.161 245.715C472.801 244.393 472.459 243.066 472.133 241.736C469.3 229.669 468.876 220.118 470.299 207.768C470.584 205.287 470.255 203.608 471.393 201.581Z"/><path fill="#055190" transform="scale(2 2)" d="M544.698 131.984C546.49 132.328 561.32 144.219 563.502 146.024C557.694 149.123 551.086 151.904 544.991 154.403C541.057 156.016 537.886 155.393 533.906 154.375C527.051 152.29 519.716 146.827 513.261 143.28C519.46 140.599 537.896 134.211 544.698 131.984Z"/><path fill="#055190" transform="scale(2 2)" d="M446.201 133.601C460.83 132.337 467.936 144.329 473.476 155.84C471.791 155.865 470.07 155.832 468.379 155.826C461.312 155.939 452.063 156.189 445.124 155.683C444.513 153.472 443.913 151.248 443.396 149.012L442.901 147.012C442.517 145.498 439.917 136.95 440.162 135.732C440.391 134.591 444.958 133.83 446.201 133.601Z"/><path fill="white" transform="scale(2 2)" d="M582.372 395.848C583.687 396.929 586.399 400.61 587.585 402.177C598.193 416.192 602.128 430.417 604.094 447.481C609.353 441.569 613.232 435.572 616.137 428.248C656.137 457.814 694.469 490.424 734.256 520.151C744.39 515.505 770.649 506.334 781.502 503.499C785.013 505.751 786.01 507.604 788.466 510.868C788.718 513.575 789.188 515.995 789.667 518.662C776.785 517.959 771.28 520.929 762.765 530.093C771.499 529.815 776.315 530.352 784.294 534.05C792.706 537.95 795.842 540.545 797.801 549.616C792.616 550.955 789.468 553.124 784.85 555.759C778.297 544.417 772.83 535.169 758.035 540.877C754.805 542.95 752.992 544.6 750.083 547.148C761.122 549.764 769.05 554.353 772.172 565.871C766.391 566.589 763.118 566.916 758.196 570.309C747.825 555.959 742.989 568.098 732.057 571.684C714.397 577.477 701.269 563.396 696.176 547.794C704.178 538.608 694.311 535.04 686.403 534.119C667.871 531.961 658.289 527.365 643.941 516.009C623.689 499.982 597.764 494.568 572.257 495.123C576.65 489.766 582.904 483.413 587.707 478.263C575.961 478.977 564.736 483.358 555.611 490.789C559.511 474.534 563.41 467.576 572.589 453.715C584.837 435.221 586.789 417.358 582.372 395.848Z"/><path fill="#C66D0D" transform="scale(2 2)" d="M228.848 397.653C243.986 396.113 264.623 403.292 274.324 415.281C285.397 428.965 268.153 446.786 256.95 454.011C235.793 467.655 216.475 471.838 191.818 467.197C199.307 464.739 203.292 463.322 209.728 458.875C217.338 453.129 221.937 447.699 225.849 439.075C215.273 444.189 208.879 446.375 196.776 446.067C181.283 445.672 165.254 436.153 155.028 424.815C200.203 429.576 197.051 402.371 228.848 397.653Z"/><path fill="white" transform="scale(2 2)" d="M778.458 281.164C781.153 281.255 784.116 281.477 785.863 283.81C790.525 290.034 789.819 300.46 789.155 307.761C784.884 309.298 780.704 310.142 777.41 313.334C776.889 314.05 775.261 316.795 774.303 316.478C773.888 315.968 775.099 314.374 775.488 313.725C778.578 308.482 778.373 301.673 778.371 295.785C778.37 294.95 775.72 295.232 775.055 292.762C774.233 289.706 773.19 285.972 772.276 282.929C774.839 281.848 775.727 281.647 778.458 281.164Z"/><path fill="white" transform="scale(2 2)" d="M806.447 301.763C813.411 302.729 812.859 312.843 813.416 318.659C808.21 322.422 805.789 324.047 801.863 329.274C801.462 330.09 800.971 330.479 800.027 329.872C799.854 329.762 799.732 329.587 799.691 329.386C799.844 330.149 805.47 316.268 805.655 314.502C807.881 311.312 804.239 312.709 803.534 310.99C802.111 307.523 803.863 303.444 806.447 301.763Z"/><path fill="white" transform="scale(2 2)" d="M531.303 253.997C532.562 254.064 540.127 259.279 533.877 258.278C531.062 257.953 528.363 257.528 525.544 257.18C527.427 256.055 529.348 254.994 531.303 253.997Z"/><path fill="#1A4FA0" transform="scale(2 2)" d="M491.294 644.38C491.627 646.56 489.798 648.484 488.489 650.142C488.19 648.03 490.026 646.035 491.294 644.38Z"/><path fill="#C66D0D" transform="scale(2 2)" d="M870.923 84.3795C854.954 99.5975 833.485 117.92 816.428 132.557C813.783 134.826 792.485 143.459 788.141 145.36L734.104 169.257L651.795 205.539C639.309 211.042 626.299 217.448 613.612 222.406L617.319 212.004C615.087 206.56 612.146 200.56 609.63 195.159C617.385 186.922 621.165 180.218 626.658 170.497L755.2 110.098C763.253 106.345 771.278 102.531 779.273 98.6574C796.824 90.2229 796.854 90.4662 816.296 88.9173L851.708 86.1122C857.012 85.6909 865.888 85.2382 870.923 84.3795Z"/><path fill="#C66D0D" transform="scale(2 2)" d="M290.283 333.293C288.197 329.763 285.548 324.393 283.915 320.546C280.191 311.774 273.771 302.338 270.946 293.485C266.916 280.861 277.924 267.525 291.265 271.501C297.333 273.31 299.86 277.591 302.734 282.747C301.973 283.093 301.22 283.458 300.476 283.841C285.454 291.693 299.112 310.975 304.984 321.013C307.475 319.992 310.413 318.549 312.799 317.264C323.352 311.584 334.976 306.816 345.382 300.97C350.118 306.869 355.046 312.952 359.786 318.822C362.921 322.706 365.283 331.771 366.866 336.787C352.911 342.382 337.226 350.628 322.425 356.898C331.145 370.374 328.04 380.621 348.557 375.955C359.84 400.197 329.194 409.376 319.94 394.207C314.123 384.673 302.504 360.494 298.64 349.949C293.763 352.225 289.955 354.04 285.252 356.712C283.514 368.477 280.062 373.175 272.173 381.504C255.715 376.776 256.415 377.119 242.071 368.124C242.516 353.686 246.356 345.915 253.252 333.743C260.693 335.296 272.816 336.993 279.339 339.739C283.515 337.94 286.656 335.964 290.283 333.293Z"/></svg>