<?xml version="1.0" encoding="utf-8" ?><svg xmlns="http://www.w3.org/2000/svg" xmlns:xlink="http://www.w3.org/1999/xlink" width="2048" height="2048" viewBox="0 0 2048 2048"><path fill="white" transform="scale(2 2)" d="M0 0L1024 0L1024 1024L0 1024L0 0Z"/><path fill="white" transform="scale(2 2)" d="M569.844 146.48C600.293 151.998 629.278 163.732 654.991 180.95C682.425 199.629 712.014 236.575 718.29 269.551C719.947 270.44 722.085 271.655 723.93 271.767C731.99 272.259 740.325 271.504 748.537 271.468L810.947 271.159C825.353 271.081 847.741 267.793 852.947 285.392C856.176 296.308 851.054 308.032 847.111 318.116C851.373 332.001 849.104 350.39 835.64 358.495C830.553 358.642 825.398 357.889 820.332 357.303C819.596 362.577 818.501 369.592 816.429 374.584C846.925 375.365 877.903 373.982 908.323 374.602C926.199 374.965 948.456 373.132 965.393 377.682C992.623 384.997 1015.16 412.662 1013.57 441.358C1013.22 447.808 1012.37 457.985 1007.9 463.143C1006.7 464.378 1003.63 464.022 1001.9 463.961C1005.42 467.929 1006.87 470.889 1009.19 475.671C1015.03 489.272 1012.24 498.263 1004.79 510.273C1011.58 514.011 1015.8 514.367 1023.46 513.999C1017.46 521.359 1016.27 522.937 1008.85 529.091C1003.03 541.917 1000.12 549.813 985.778 554.863C978.486 557.431 970.197 559.106 962.451 559.49C946.226 560.296 929.256 559.975 912.974 559.976L818.016 560.062C817.618 564.283 817.305 567.747 816.517 571.896C822.121 572.582 837.701 572.191 840.437 575.887C847.135 584.936 824.595 603.511 818.372 607.171C800.598 617.625 778.922 619.631 759.174 614.707C740.493 609.934 728.163 601.091 713.209 590.474C691.102 616.034 673.779 633.945 643.488 650.68C636.833 654.357 629.18 658.825 622.104 661.53C617.988 643.631 612.632 624.822 608.839 607.452L607.368 608.493C607.044 617.865 605.413 640.923 604.102 650.055C602.063 648.983 600.044 648.009 598.164 646.683C596.711 645.402 583.519 638.332 580.72 636.68C580.128 635.986 574.525 631.848 573.225 630.833C567.699 626.52 562.046 622.363 556.731 617.775C529.699 594.442 512.9 566.566 502.33 532.729C498.311 555.781 497.048 579.229 498.567 602.58C456.869 566.448 430.419 528.692 423.658 472.838C423.102 467.522 423.017 462.65 422.881 457.324C424.432 448.975 423.359 441.203 425.672 430.204C411.293 442.92 397.047 455.788 382.938 468.803C382.675 466.406 382.502 464 382.419 461.591C380.195 412.401 397.548 364.334 430.682 327.91C410.709 331.888 384.207 337.77 364.567 343.021C380.629 307.16 410.932 271.597 444.415 251.089C455.851 244.084 465.788 239.505 478.068 234.317C456.962 232.574 435.836 231.086 414.694 229.853C465.326 191.82 534.002 167.513 597.598 179.373C588.245 168.495 578.993 157.53 569.844 146.48Z"/><path fill="#FF6B00" transform="scale(2 2)" d="M569.844 146.48C600.293 151.998 629.278 163.732 654.991 180.95C682.425 199.629 712.014 236.575 718.29 269.551C714.752 267.93 711.229 266.284 707.712 264.62C682.767 252.812 648.698 254.746 624.441 267.474C606.254 244.529 583.314 235.482 555.973 228.053C550.037 226.439 543.557 224.155 537.478 223.428C535.541 223.196 533.444 223.182 531.813 224.393C528.359 226.959 518.521 256.69 516.982 262.434C515.998 266.105 515.264 269.845 515.017 273.643C513.874 291.195 523.097 306.247 534.38 318.939C544.209 329.996 555.704 339.622 566.679 349.506C551.063 386.959 551.159 429.117 566.944 466.499C580.754 498.872 604.463 526.038 634.672 544.099C645.517 550.478 657.301 555.009 668.575 560.471C680.09 566.051 693.268 570.588 704.328 576.823C703.381 583.429 708.633 586.419 713.209 590.474C691.102 616.034 673.779 633.945 643.488 650.68C636.833 654.357 629.18 658.825 622.104 661.53C617.988 643.631 612.632 624.822 608.839 607.452L607.368 608.493C607.044 617.865 605.413 640.923 604.102 650.055C602.063 648.983 600.044 648.009 598.164 646.683C596.711 645.402 583.519 638.332 580.72 636.68C580.128 635.986 574.525 631.848 573.225 630.833C567.699 626.52 562.046 622.363 556.731 617.775C529.699 594.442 512.9 566.566 502.33 532.729C498.311 555.781 497.048 579.229 498.567 602.58C456.869 566.448 430.419 528.692 423.658 472.838C423.102 467.522 423.017 462.65 422.881 457.324C424.432 448.975 423.359 441.203 425.672 430.204C411.293 442.92 397.047 455.788 382.938 468.803C382.675 466.406 382.502 464 382.419 461.591C380.195 412.401 397.548 364.334 430.682 327.91C410.709 331.888 384.207 337.77 364.567 343.021C380.629 307.16 410.932 271.597 444.415 251.089C455.851 244.084 465.788 239.505 478.068 234.317C456.962 232.574 435.836 231.086 414.694 229.853C465.326 191.82 534.002 167.513 597.598 179.373C588.245 168.495 578.993 157.53 569.844 146.48Z"/><path fill="#FCEFF3" transform="scale(2 2)" d="M607.368 608.493L607.461 607.499C607.506 606.974 607.481 606.233 607.854 605.827C608.444 605.762 608.709 607.062 608.839 607.452L607.368 608.493Z"/><path fill="#FF6B00" transform="scale(2 2)" d="M816.429 374.584C846.925 375.365 877.903 373.982 908.323 374.602C926.199 374.965 948.456 373.132 965.393 377.682C992.623 384.997 1015.16 412.662 1013.57 441.358C1013.22 447.808 1012.37 457.985 1007.9 463.143C1006.7 464.378 1003.63 464.022 1001.9 463.961C1005.42 467.929 1006.87 470.889 1009.19 475.671C1015.03 489.272 1012.24 498.263 1004.79 510.273C1011.58 514.011 1015.8 514.367 1023.46 513.999C1017.46 521.359 1016.27 522.937 1008.85 529.091C1003.03 541.917 1000.12 549.813 985.778 554.863C978.486 557.431 970.197 559.106 962.451 559.49C946.226 560.296 929.256 559.975 912.974 559.976L818.016 560.062C818.08 550.677 817.431 544.563 815.738 535.387C813.079 523.657 809.313 517.721 806.093 507.184C804.01 504.01 801.987 500.798 800.026 497.548L797.8 504.716C788.099 506.218 780.892 515.484 770.561 516.957C757.991 519.713 749.024 507.118 738.077 505.932C722.4 504.234 713.711 520.1 696.628 516.621C687.494 514.761 688.639 512.873 681.747 509.467C674.958 498.414 672.62 488.776 671.538 476.03C671.239 471.224 671.331 466.401 671.813 461.61C672.986 450.607 675.346 442.615 679.362 432.421C687.449 411.895 699.071 395.134 717.66 382.71C721.61 380.069 726.334 376.901 730.727 375.049C744.573 375.255 758.779 374.851 772.853 375.046C778.442 396.328 778.198 411.699 773.793 432.974C794.561 417.747 807.527 398.51 816.429 374.584Z"/><path fill="#169922" transform="scale(2 2)" d="M671.813 461.61C706.707 461.29 740.857 462.058 775.675 462.426L881.39 463.001L960.733 463.528C970.697 463.577 992.667 463.04 1001.9 463.961C1005.42 467.929 1006.87 470.889 1009.19 475.671C1015.03 489.272 1012.24 498.263 1004.79 510.273C1011.58 514.011 1015.8 514.367 1023.46 513.999C1017.46 521.359 1016.27 522.937 1008.85 529.091C1003.03 541.917 1000.12 549.813 985.778 554.863C978.486 557.431 970.197 559.106 962.451 559.49C946.226 560.296 929.256 559.975 912.974 559.976L818.016 560.062C818.08 550.677 817.431 544.563 815.738 535.387C813.079 523.657 809.313 517.721 806.093 507.184C804.01 504.01 801.987 500.798 800.026 497.548L797.8 504.716C788.099 506.218 780.892 515.484 770.561 516.957C757.991 519.713 749.024 507.118 738.077 505.932C722.4 504.234 713.711 520.1 696.628 516.621C687.494 514.761 688.639 512.873 681.747 509.467C674.958 498.414 672.62 488.776 671.538 476.03C671.239 471.224 671.331 466.401 671.813 461.61Z"/><path fill="#FEC109" transform="scale(2 2)" d="M671.813 461.61C706.707 461.29 740.857 462.058 775.675 462.426L881.39 463.001L960.733 463.528C970.697 463.577 992.667 463.04 1001.9 463.961C1005.42 467.929 1006.87 470.889 1009.19 475.671C1005.75 476.403 1003.79 476.685 1000.68 478.701C990.704 485.191 982.883 504.135 967.682 494.703C957.424 487.235 953.899 473.82 938.333 476.933C924.272 479.745 922.983 497.712 907.654 496.922C891.034 496.066 890.645 473.892 872.387 476.676C856.144 479.152 852.797 506.252 833.296 494.906C824.385 489.509 820.796 474.591 805.174 476.578C789.56 478.565 785.026 506.373 765.71 494.106C755.654 486.135 753.288 475.01 738.123 476.637C724.75 478.072 719.457 498.707 706.992 496.847C689.78 494.28 692.615 477.964 671.538 476.03C671.239 471.224 671.331 466.401 671.813 461.61Z"/><path fill="#FF6B00" transform="scale(2 2)" d="M815.738 535.387C831.97 537.099 838.993 534.498 851.938 525.801C868.957 514.369 881.808 530.698 897.186 534.848C903.977 536.68 915.766 536.099 921.925 531.936C929.49 525.965 937.785 520.837 948.117 523.614C974.155 530.612 981.243 544.529 1008.85 529.091C1003.03 541.917 1000.12 549.813 985.778 554.863C978.486 557.431 970.197 559.106 962.451 559.49C946.226 560.296 929.256 559.975 912.974 559.976L818.016 560.062C818.08 550.677 817.431 544.563 815.738 535.387Z"/><path fill="#CF0403" transform="scale(2 2)" d="M806.093 507.184C815.366 512.727 825.047 519.88 836.497 516.612C851.47 512.338 858.565 497.332 876.298 507.71C887.393 514.204 897.002 522.59 911.001 519.14C922.939 516.198 927.85 505.912 940.778 505.472C950.338 505.146 956.134 510.966 964.215 514.585C978.808 521.12 992.821 522.36 1004.79 510.273C1011.58 514.011 1015.8 514.367 1023.46 513.999C1017.46 521.359 1016.27 522.937 1008.85 529.091C981.243 544.529 974.155 530.612 948.117 523.614C937.785 520.837 929.49 525.965 921.925 531.936C915.766 536.099 903.977 536.68 897.186 534.848C881.808 530.698 868.957 514.369 851.938 525.801C838.993 534.498 831.97 537.099 815.738 535.387C813.079 523.657 809.313 517.721 806.093 507.184Z"/><path fill="white" transform="scale(2 2)" d="M731.588 406.211C737.813 405.228 743.674 409.426 744.748 415.636C745.822 421.846 741.712 427.768 735.518 428.934C731.429 429.703 727.243 428.21 724.564 425.028C721.885 421.845 721.127 417.466 722.582 413.569C724.037 409.671 727.478 406.859 731.588 406.211Z"/><path fill="white" transform="scale(2 2)" d="M870.759 408.856C876.934 407.706 882.886 411.736 884.111 417.897C885.336 424.057 881.379 430.058 875.234 431.358C871.192 432.213 867.002 430.829 864.265 427.733C861.528 424.638 860.667 420.31 862.011 416.403C863.356 412.495 866.697 409.613 870.759 408.856Z"/><path fill="white" transform="scale(2 2)" d="M807.61 407.541C813.673 405.847 819.961 409.385 821.661 415.446C823.361 421.507 819.83 427.799 813.771 429.505C807.703 431.214 801.4 427.676 799.697 421.607C797.995 415.537 801.539 409.237 807.61 407.541Z"/><path fill="white" transform="scale(2 2)" d="M936.095 409.316C942.123 407.642 948.367 411.163 950.055 417.186C951.744 423.21 948.238 429.463 942.219 431.166C936.179 432.875 929.899 429.355 928.205 423.31C926.511 417.266 930.047 410.995 936.095 409.316Z"/><path fill="#1A6FD4" transform="scale(2 2)" d="M566.679 349.506C555.704 339.622 544.209 329.996 534.38 318.939C523.097 306.247 513.874 291.195 515.017 273.643C515.264 269.845 515.998 266.105 516.982 262.434C518.521 256.69 528.359 226.959 531.813 224.393C533.444 223.182 535.541 223.196 537.478 223.428C543.557 224.155 550.037 226.439 555.973 228.053C583.314 235.482 606.254 244.529 624.441 267.474C648.698 254.746 682.767 252.812 707.712 264.62C711.229 266.284 714.752 267.93 718.29 269.551C719.947 270.44 722.085 271.655 723.93 271.767C731.99 272.259 740.325 271.504 748.537 271.468L810.947 271.159C825.353 271.081 847.741 267.793 852.947 285.392C856.176 296.308 851.054 308.032 847.111 318.116C851.373 332.001 849.104 350.39 835.64 358.495C830.553 358.642 825.398 357.889 820.332 357.303C819.596 362.577 818.501 369.592 816.429 374.584C807.527 398.51 794.561 417.747 773.793 432.974C778.198 411.699 778.442 396.328 772.853 375.046C758.779 374.851 744.573 375.255 730.727 375.049C726.334 376.901 721.61 380.069 717.66 382.71C699.071 395.134 687.449 411.895 679.362 432.421C675.346 442.615 672.986 450.607 671.813 461.61C671.331 466.401 671.239 471.224 671.538 476.03C672.62 488.776 674.958 498.414 681.747 509.467C688.639 512.873 687.494 514.761 696.628 516.621C713.711 520.1 722.4 504.234 738.077 505.932C749.024 507.118 757.991 519.713 770.561 516.957C780.892 515.484 788.099 506.218 797.8 504.716L800.026 497.548C801.987 500.798 804.01 504.01 806.093 507.184C809.313 517.721 813.079 523.657 815.738 535.387C817.431 544.563 818.08 550.677 818.016 560.062C817.618 564.283 817.305 567.747 816.517 571.896C822.121 572.582 837.701 572.191 840.437 575.887C847.135 584.936 824.595 603.511 818.372 607.171C800.598 617.625 778.922 619.631 759.174 614.707C740.493 609.934 728.163 601.091 713.209 590.474C708.633 586.419 703.381 583.429 704.328 576.823C712.846 566.841 715.561 575.637 723.169 581.076C747.724 598.633 777.931 612.603 807.374 597.504C813.805 594.206 818.265 590.252 823.613 585.558C781.335 584.14 725.581 567.406 692.411 540.438C673.379 524.964 661.438 505.325 658.919 480.886C656.023 452.795 667.655 416.858 685.131 395.327C712.352 361.703 754.754 345.151 797.299 344.346C807.816 344.147 818.854 343.957 829.345 344.66C835.616 345.08 837.081 332.243 835.775 327.665C834.11 321.822 832.76 319.272 827.39 315.611C820.064 315.511 812.83 313.974 806.097 311.086C793.861 305.7 785.858 297.344 781.095 284.995C772.715 284.667 764.325 284.704 755.948 285.106C747.707 285.422 726.633 287.381 720.089 285.341C709.814 282.138 699.364 273.955 686.762 271.605C663.136 267.201 638.433 273.384 618.485 285.905C599.143 298.865 583.93 316.438 572.734 336.819C570.647 340.842 568.545 346.031 566.679 349.506Z"/><path fill="#FF6B00" transform="scale(2 2)" d="M539.434 237.864C565.999 242.823 610.494 256.894 618.485 285.905C599.143 298.865 583.93 316.438 572.734 336.819C559.049 327.769 539.042 307.089 531.654 292.414C523.003 275.231 533.197 255.439 539.434 237.864Z"/><path fill="#CF0403" transform="scale(2 2)" d="M681.747 509.467C688.639 512.873 687.494 514.761 696.628 516.621C713.711 520.1 722.4 504.234 738.077 505.932C749.024 507.118 757.991 519.713 770.561 516.957C780.892 515.484 788.099 506.218 797.8 504.716C795.015 516.543 790.685 525.666 783.442 535.482C758.412 536.75 742.853 512.462 721.757 535.461C720.02 537.392 718.312 539.349 716.633 541.33C706.567 535.179 687.075 520.163 681.747 509.467Z"/><path fill="#FF6B00" transform="scale(2 2)" d="M716.633 541.33C718.312 539.349 720.02 537.392 721.757 535.461C742.853 512.462 758.412 536.75 783.442 535.482C774.43 547.657 769.294 550.809 758.854 560.726C744.845 555.824 729.648 548.55 716.633 541.33Z"/><path fill="white" transform="scale(2 2)" d="M730.727 375.049C740.451 368.776 756.459 364.068 767.721 361.705C769.998 366.343 771.152 370.214 772.853 375.046C758.779 374.851 744.573 375.255 730.727 375.049Z"/><path fill="white" transform="scale(2 2)" d="M801.107 512.842C809.703 530.141 813.032 552.548 810.289 571.675C801.043 569.995 791.86 568.81 782.705 566.736C777.748 565.849 771.95 564.309 766.99 563.122C781.617 551.07 797.444 531.926 801.107 512.842Z"/><path fill="white" transform="scale(2 2)" d="M809.453 357.721C811.057 357.571 811.372 357.617 812.926 357.744L813.253 358.444C810.698 375.065 802.286 392.265 792.044 405.342C790.09 407.836 786.572 412.469 784.12 414.375L783.582 414.034L783.51 412.125C783.866 392.338 781.775 378.697 775.121 360.317C788.424 358.275 796.156 358.32 809.453 357.721Z"/><path fill="#1A6FD4" transform="scale(2 2)" d="M673.439 294.636C687.885 292.838 701.044 303.117 702.797 317.568C704.549 332.02 694.229 345.146 679.772 346.853C665.38 348.552 652.325 338.288 650.58 323.901C648.835 309.514 659.058 296.427 673.439 294.636Z"/><path fill="white" transform="scale(2 2)" d="M675.484 305.793C683.668 305.053 690.908 311.078 691.668 319.26C692.428 327.443 686.422 334.698 678.241 335.479C670.031 336.262 662.745 330.23 661.982 322.018C661.219 313.806 667.27 306.535 675.484 305.793Z"/><path fill="white" transform="scale(2 2)" d="M126.972 528.224C113.23 527.689 103.174 526.65 89.8894 522.455C30.3731 503.998 7.60891 433.917 60.7196 392.964C99.2887 363.224 141.528 366.666 184.709 381.828C181.035 386.329 179.893 388.599 177.97 394.163C134.048 374.736 69.7428 382.609 47.7899 430.56C42.2685 442.62 43.3545 458.362 48.3619 470.385C62.6512 504.694 103.68 516.984 137.936 514.865C160.533 489.077 194.48 470.247 228.983 468.129C245.491 466.961 262.061 469.231 277.647 474.794C285.189 477.559 292.848 481.34 300.628 483.168C338.948 492.172 391.207 479.991 422.881 457.324C423.017 462.65 423.102 467.522 423.658 472.838C430.419 528.692 456.869 566.448 498.567 602.58C497.048 579.229 498.311 555.781 502.33 532.729C512.9 566.566 529.699 594.442 556.731 617.775C562.046 622.363 567.699 626.52 573.225 630.833C574.525 631.848 580.128 635.986 580.72 636.68C583.519 638.332 596.711 645.402 598.164 646.683C596.653 658.786 592.86 674.613 590.332 686.757L578.028 745.971C574.37 762.838 570.03 780.272 569.361 797.556C568.95 808.162 571.743 820.025 583.378 823.067C602.385 819.666 617.35 817.007 634.722 829.025C653.454 841.984 659.176 857.878 658.644 879.909C632.17 879.837 601.396 879.122 575.312 879.99L500.497 880.097C489.838 880.115 479.171 880.216 468.519 880.056C459.592 879.922 452.02 877.398 445.195 871.623C429.453 858.306 434.548 839.842 432.868 821.731C430.096 794.069 427.558 766.383 425.252 738.678C423.982 724.912 422.36 710.744 421.362 697.016C387.213 697.084 356.512 692.654 324.453 680.406C306.485 701.537 287.192 720.261 262.738 733.98C245.848 743.455 230.458 748.563 221.207 767.083C211.489 786.535 211.387 810.692 232.965 821.734C240.516 820.395 247.328 819.112 255.011 819.965C280.975 822.848 302.509 842.978 303.844 869.599C304.014 872.993 304.008 876.297 304.013 879.696C251.608 880.54 198.163 879.702 145.65 879.741L95.9585 879.885C75.7907 879.962 58.1165 884.334 48.3017 862.546C46.3126 859.163 44.9791 854.117 44.2254 850.263C40.6395 831.927 37.3307 813.079 34.294 794.638C32.0014 778.46 26.7064 759.737 26.8162 743.548C27.2285 726.926 36.2329 711.581 52.9123 707.133C75.1677 701.197 92.6663 685.957 99.1835 663.622C103.501 648.828 102.885 635.866 101.74 620.787C99.1185 586.263 108.392 556.86 126.972 528.224Z"/><path fill="#1A6FD4" transform="scale(2 2)" d="M97.7313 819.726C81.0859 789.057 91.0219 753.648 121.474 735.397C135.105 727.228 153.612 725.953 167.99 719.458C219.565 697.712 259.376 649.169 269.266 593.911C269.726 591.337 270.442 587.54 273.15 586.557C292.62 579.493 276.299 622.142 274.09 627.77C272.931 630.702 271.697 633.605 270.391 636.476C278.506 643.286 290.858 650.03 300.426 654.849C338.432 673.993 377.417 684.412 420.086 683.514C419.467 673.386 418.693 663.267 417.763 653.162C417.202 647.207 413.238 634.14 422.619 632.414C424.044 632.151 426.475 633.346 427.604 634.363C431.15 641.162 431.912 660.672 432.557 667.541L437.308 719.881C440.466 755.723 443.866 791.634 446.777 827.513C447.3 833.968 446.741 841.658 446.982 848.282C455.797 834.764 469.289 828.605 484.056 823.774C480.958 811.672 488.425 785.157 491.371 771.798L508.833 695.042L517.337 656.755C518.762 650.347 520.866 639.01 523.481 633.311C527.075 630.218 530.535 629.601 533.367 634.056C536.647 639.219 533.697 646.225 532.442 651.661C530.391 660.914 528.225 670.14 525.942 679.339C549.818 667.093 562.602 655.86 580.72 636.68C583.519 638.332 596.711 645.402 598.164 646.683C596.653 658.786 592.86 674.613 590.332 686.757L578.028 745.971C574.37 762.838 570.03 780.272 569.361 797.556C568.95 808.162 571.743 820.025 583.378 823.067C602.385 819.666 617.35 817.007 634.722 829.025C653.454 841.984 659.176 857.878 658.644 879.909C632.17 879.837 601.396 879.122 575.312 879.99L500.497 880.097C489.838 880.115 479.171 880.216 468.519 880.056C459.592 879.922 452.02 877.398 445.195 871.623C429.453 858.306 434.548 839.842 432.868 821.731C430.096 794.069 427.558 766.383 425.252 738.678C423.982 724.912 422.36 710.744 421.362 697.016C387.213 697.084 356.512 692.654 324.453 680.406C306.485 701.537 287.192 720.261 262.738 733.98C245.848 743.455 230.458 748.563 221.207 767.083C211.489 786.535 211.387 810.692 232.965 821.734C240.516 820.395 247.328 819.112 255.011 819.965C280.975 822.848 302.509 842.978 303.844 869.599C304.014 872.993 304.008 876.297 304.013 879.696C251.608 880.54 198.163 879.702 145.65 879.741L95.9585 879.885C75.7907 879.962 58.1165 884.334 48.3017 862.546C50.0928 850.104 47.9569 850.447 56.1686 838.237C56.3895 837.976 56.6161 837.72 56.8483 837.469C66.9097 826.611 83.1256 820.452 97.7313 819.726Z"/><path fill="#FF6B00" transform="scale(2 2)" d="M170.033 834.822C182.871 825.546 193.483 821.012 209.433 819.388C215.559 825.812 220.459 830.998 229.186 833.743C237.216 831.825 245.299 829.911 253.063 827.096C247.007 826.144 238.347 824.838 232.965 821.734C240.516 820.395 247.328 819.112 255.011 819.965C280.975 822.848 302.509 842.978 303.844 869.599C304.014 872.993 304.008 876.297 304.013 879.696C251.608 880.54 198.163 879.702 145.65 879.741L95.9585 879.885C75.7907 879.962 58.1165 884.334 48.3017 862.546C50.0928 850.104 47.9569 850.447 56.1686 838.237C56.3895 837.976 56.6161 837.72 56.8483 837.469C66.9097 826.611 83.1256 820.452 97.7313 819.726C103.077 825.573 109.347 831.956 117.682 832.73C121.15 833.052 126.387 831.219 130.002 831.149C150.55 830.731 167.445 844.19 169.978 864.849C170.558 869.577 170.087 877.168 176.63 877.493C181.96 877.757 184.311 871.16 183.86 866.847C182.599 854.805 178.133 843.854 170.033 834.822Z"/><path fill="white" transform="scale(2 2)" d="M263.737 649.13C277.455 659.232 295.47 667.701 310.885 675.193C299.929 689.626 278.758 707.504 263.473 717.14C237.874 733.278 214.136 739.732 204.328 772.426C199.314 789.139 201.103 804.037 209.433 819.388C193.483 821.012 182.871 825.546 170.033 834.822C168.556 833.093 166.546 830.914 166.04 828.695C159.36 799.423 155.461 768.471 150.605 738.943C155.456 737.788 160.263 736.451 165.014 734.935C205.966 721.658 244.232 687.375 263.737 649.13Z"/><path fill="white" transform="scale(2 2)" d="M583.093 653.779C577.358 685.643 569.433 717.404 563.42 749.241C559.002 772.635 551.745 795.56 559.419 819.073C554.043 818.601 541.956 818.345 536.483 819.534C527.722 818.821 523.426 818.085 514.696 818.816C513.681 813.573 512.726 804.805 511.913 799.216C510.443 789.127 507.789 773.313 507.813 763.561C507.822 759.879 512.301 741.94 513.37 737.329C516.667 723.309 519.789 709.247 522.735 695.149C543.493 688.387 568.131 669.424 583.093 653.779Z"/><path fill="#FF6B00" transform="scale(2 2)" d="M536.483 819.534C541.956 818.345 554.043 818.601 559.419 819.073C565.074 827.575 569.749 832.667 579.786 835.941C587.87 833.756 598.46 830.194 606.197 828.715C599.583 827.177 589.55 825.131 583.378 823.067C602.385 819.666 617.35 817.007 634.722 829.025C653.454 841.984 659.176 857.878 658.644 879.909C632.17 879.837 601.396 879.122 575.312 879.99C576.952 859.962 573.645 843.141 557.149 829.769C550.85 824.663 543.872 822.552 536.483 819.534Z"/><path fill="#FF6B00" transform="scale(2 2)" d="M484.056 823.774C493.287 838.584 505.446 833.529 519.755 832.081C534.251 830.614 549.56 835.792 557.374 848.695C561.065 854.571 562.374 860.402 563.852 867.042C542.049 867.342 520.245 867.459 498.44 867.394C484.885 867.376 462.891 869.767 452.216 860.242C448.953 857.331 447.231 852.623 446.982 848.282C455.797 834.764 469.289 828.605 484.056 823.774Z"/><path fill="white" transform="scale(2 2)" d="M137.434 743.099C138.78 745.254 149.172 812.422 150.821 821.061C138.868 817.284 130.747 817.543 118.466 819.079C117.535 818.93 116.65 818.779 115.832 818.297C99.542 808.688 100.058 784.007 107.96 769.293C115.459 755.332 122.945 747.995 137.434 743.099Z"/><path fill="white" transform="scale(2 2)" d="M498.933 803.544C499.603 807.701 499.779 812.617 500.55 816.751C501.327 820.92 501.4 822.531 497.143 819.406C495.075 817.604 497.649 806.134 497.919 804.023L498.933 803.544Z"/><path fill="#A1C4E8" transform="scale(2 2)" d="M497.919 804.023C498.022 803.649 498.423 801.994 498.702 801.821C498.946 802.505 498.896 802.745 498.933 803.544L497.919 804.023Z"/><path fill="#1A6FD4" transform="scale(2 2)" d="M126.972 528.224C113.23 527.689 103.174 526.65 89.8894 522.455C30.3731 503.998 7.60891 433.917 60.7196 392.964C99.2887 363.224 141.528 366.666 184.709 381.828C181.035 386.329 179.893 388.599 177.97 394.163C134.048 374.736 69.7428 382.609 47.7899 430.56C42.2685 442.62 43.3545 458.362 48.3619 470.385C62.6512 504.694 103.68 516.984 137.936 514.865C160.533 489.077 194.48 470.247 228.983 468.129C245.491 466.961 262.061 469.231 277.647 474.794C285.189 477.559 292.848 481.34 300.628 483.168C338.948 492.172 391.207 479.991 422.881 457.324C423.017 462.65 423.102 467.522 423.658 472.838C391.998 494.042 340.939 504.068 303.752 497.395C291.068 495.119 278.846 489.049 266.631 485.14C198.455 466.408 129.551 520.152 116.963 585.745C115.198 594.636 114.371 603.687 114.496 612.75C115.005 639.739 120.342 653.751 106.814 680.881C101.152 692.115 92.7024 701.709 82.2739 708.746C77.0279 712.256 71.3941 715.148 65.4844 717.365C55.7964 720.919 48.9341 720.143 43.4267 731.075C40.2671 737.346 39.9658 743.252 40.5564 750.253C44.0628 776.242 49.2728 802.004 53.7392 827.843C54.3152 831.176 55.139 835.052 56.1686 838.237C47.9569 850.447 50.0928 850.104 48.3017 862.546C46.3126 859.163 44.9791 854.117 44.2254 850.263C40.6395 831.927 37.3307 813.079 34.294 794.638C32.0014 778.46 26.7064 759.737 26.8162 743.548C27.2285 726.926 36.2329 711.581 52.9123 707.133C75.1677 701.197 92.6663 685.957 99.1835 663.622C103.501 648.828 102.885 635.866 101.74 620.787C99.1185 586.263 108.392 556.86 126.972 528.224Z"/><path fill="#FF6B00" transform="scale(2 2)" d="M184.709 381.828C199.842 369.897 216.223 367.822 235.048 369.876C255.928 372.459 277.613 381.679 290.922 398.419C296.042 404.86 300.672 415.305 299.043 423.313C293.353 449.772 256.847 452.128 235.563 448.245C216.334 444.737 196.354 434.938 184.819 418.779C180.244 412.371 176.027 402.123 177.97 394.163C179.893 388.599 181.035 386.329 184.709 381.828Z"/></svg>