<svg xmlns="http://www.w3.org/2000/svg" viewBox="3 4 24 23" width="100" height="100" fill="none" stroke="#2c3e50" stroke-width="0.8" stroke-linecap="round" stroke-linejoin="round">
  <path d="M4 26h18" />
  
  <rect x="18" y="14" width="8" height="6" rx="1" />
  <path d="M22 20v6" />
  <path d="M19.5 26h5" />
  <path d="M16 23h3" /> <path d="M9.5 5.5l.7-.9 1 .9 1.3-.3-.3 1.3 1 .9-1 .9.3 1.3-1.3-.3-1 .9-.7-.9-1.3.3.3-1.3-1-.9 1-.9-.3-1.3z" />
  
  <circle cx="10" cy="7.5" r="1" />
  <path d="M11 7.5h.5" /> 

  <path d="M7 26c0-4 1.5-8 3-8 1.2 0 2 1.5 2 3" />
  
  <path d="M10 18.5c.8 1.5 1.5 3 3.5 3.3h.8" />

  <path d="M7 23.5c-1.5 0-2.5-.8-2.5-2s1-2.2 2.5-2.2" />
</svg>
